<svg xmlns="http://www.w3.org/2000/svg"  viewBox="0 0 100 100" width="100px" height="100px"><path fill="#c7ede6" d="M87.215,56.71C88.35,54.555,89,52.105,89,49.5c0-6.621-4.159-12.257-10.001-14.478 C78.999,35.015,79,35.008,79,35c0-11.598-9.402-21-21-21c-9.784,0-17.981,6.701-20.313,15.757C36.211,29.272,34.638,29,33,29 c-7.692,0-14.023,5.793-14.89,13.252C12.906,43.353,9,47.969,9,53.5C9,59.851,14.149,65,20.5,65c0.177,0,0.352-0.012,0.526-0.022 C21.022,65.153,21,65.324,21,65.5C21,76.822,30.178,86,41.5,86c6.437,0,12.175-2.972,15.934-7.614C59.612,80.611,62.64,82,66,82 c4.65,0,8.674-2.65,10.666-6.518C77.718,75.817,78.837,76,80,76c6.075,0,11-4.925,11-11C91,61.689,89.53,58.727,87.215,56.71z"/><path fill="#fdfcef" d="M31.875,38.5c0,0,3.64,0,6.125,0s4.5-2.015,4.5-4.5c0-2.333-1.782-4.229-4.055-4.455 C38.467,29.364,38.5,29.187,38.5,29c0-2.485-2.015-4.5-4.5-4.5c-1.438,0-2.703,0.686-3.527,1.736 C30.333,23.6,28.171,21.5,25.5,21.5c-2.761,0-5,2.239-5,5c0,0.446,0.077,0.87,0.187,1.282C20.045,27.005,19.086,26.5,18,26.5 c-1.781,0-3.234,1.335-3.455,3.055C14.364,29.533,14.187,29.5,14,29.5c-2.485,0-4.5,2.015-4.5,4.5s2.015,4.5,4.5,4.5s9.5,0,9.5,0 h5.375V39h3V38.5z"/><path fill="#472b29" d="M25.5,21c-3.033,0-5.5,2.467-5.5,5.5c0,0.016,0,0.031,0,0.047C19.398,26.192,18.71,26,18,26 c-1.831,0-3.411,1.261-3.858,3.005C14.095,29.002,14.048,29,14,29c-2.757,0-5,2.243-5,5s2.243,5,5,5h14.875 c0.276,0,0.5-0.224,0.5-0.5s-0.224-0.5-0.5-0.5H14c-2.206,0-4-1.794-4-4s1.794-4,4-4c0.117,0,0.23,0.017,0.343,0.032l0.141,0.019 c0.021,0.003,0.041,0.004,0.062,0.004c0.246,0,0.462-0.185,0.495-0.437C15.232,28.125,16.504,27,18,27 c0.885,0,1.723,0.401,2.301,1.1c0.098,0.118,0.241,0.182,0.386,0.182c0.078,0,0.156-0.018,0.228-0.056 c0.209-0.107,0.314-0.346,0.254-0.573C21.054,27.218,21,26.852,21,26.5c0-2.481,2.019-4.5,4.5-4.5 c2.381,0,4.347,1.872,4.474,4.263c0.011,0.208,0.15,0.387,0.349,0.45c0.05,0.016,0.101,0.024,0.152,0.024 c0.15,0,0.296-0.069,0.392-0.192C31.638,25.563,32.779,25,34,25c2.206,0,4,1.794,4,4c0,0.117-0.017,0.23-0.032,0.343l-0.019,0.141 c-0.016,0.134,0.022,0.268,0.106,0.373c0.084,0.105,0.207,0.172,0.34,0.185C40.451,30.247,42,31.949,42,34c0,2.206-1.794,4-4,4 h-6.125c-0.276,0-0.5,0.224-0.5,0.5s0.224,0.5,0.5,0.5H38c2.757,0,5-2.243,5-5c0-2.397-1.689-4.413-4.003-4.877 C38.999,29.082,39,29.041,39,29c0-2.757-2.243-5-5-5c-1.176,0-2.293,0.416-3.183,1.164C30.219,22.76,28.055,21,25.5,21L25.5,21z"/><path fill="#472b29" d="M24,28c-1.403,0-2.609,0.999-2.913,2.341C20.72,30.119,20.301,30,19.875,30 c-1.202,0-2.198,0.897-2.353,2.068C17.319,32.022,17.126,32,16.937,32c-1.529,0-2.811,1.2-2.918,2.732 C14.01,34.87,14.114,34.99,14.251,35c0.006,0,0.012,0,0.018,0c0.13,0,0.24-0.101,0.249-0.232c0.089-1.271,1.151-2.268,2.419-2.268 c0.229,0,0.47,0.042,0.738,0.127c0.022,0.007,0.045,0.01,0.067,0.01c0.055,0,0.11-0.02,0.156-0.054 C17.962,32.537,18,32.455,18,32.375c0-1.034,0.841-1.875,1.875-1.875c0.447,0,0.885,0.168,1.231,0.473 c0.047,0.041,0.106,0.063,0.165,0.063c0.032,0,0.063-0.006,0.093-0.019c0.088-0.035,0.148-0.117,0.155-0.212 C21.623,29.512,22.712,28.5,24,28.5c0.208,0,0.425,0.034,0.682,0.107c0.023,0.007,0.047,0.01,0.07,0.01 c0.109,0,0.207-0.073,0.239-0.182c0.038-0.133-0.039-0.271-0.172-0.309C24.517,28.04,24.256,28,24,28L24,28z"/><path fill="#472b29" d="M37.883,29.5c-1.326,0-2.508,0.897-2.874,2.182c-0.038,0.133,0.039,0.271,0.172,0.309 C35.205,31.997,35.228,32,35.25,32c0.109,0,0.209-0.072,0.24-0.182C35.795,30.748,36.779,30,37.883,30 c0.117,0,0.23,0.014,0.342,0.029c0.012,0.002,0.023,0.003,0.035,0.003c0.121,0,0.229-0.092,0.246-0.217 c0.019-0.137-0.077-0.263-0.214-0.281C38.158,29.516,38.022,29.5,37.883,29.5L37.883,29.5z"/><path fill="#fff" d="M16.405,58H6.5C6.224,58,6,57.776,6,57.5S6.224,57,6.5,57h9.905c0.276,0,0.5,0.224,0.5,0.5 S16.682,58,16.405,58z"/><path fill="#fff" d="M19.5,58h-1c-0.276,0-0.5-0.224-0.5-0.5s0.224-0.5,0.5-0.5h1c0.276,0,0.5,0.224,0.5,0.5 S19.777,58,19.5,58z"/><path fill="#fff" d="M24.491,60H15.5c-0.276,0-0.5-0.224-0.5-0.5s0.224-0.5,0.5-0.5h8.991c0.276,0,0.5,0.224,0.5,0.5 S24.767,60,24.491,60z"/><path fill="#fff" d="M13.5,60h-1c-0.276,0-0.5-0.224-0.5-0.5s0.224-0.5,0.5-0.5h1c0.276,0,0.5,0.224,0.5,0.5 S13.777,60,13.5,60z"/><path fill="#fff" d="M10.5,60h-2C8.224,60,8,59.776,8,59.5S8.224,59,8.5,59h2c0.276,0,0.5,0.224,0.5,0.5 S10.777,60,10.5,60z"/><path fill="#fff" d="M16.5,62h-2c-0.276,0-0.5-0.224-0.5-0.5s0.224-0.5,0.5-0.5h2c0.276,0,0.5,0.224,0.5,0.5 S16.776,62,16.5,62z"/><path fill="#fff" d="M19.5,53c-0.177,0-0.823,0-1,0c-0.276,0-0.5,0.224-0.5,0.5c0,0.276,0.224,0.5,0.5,0.5 c0.177,0,0.823,0,1,0c0.276,0,0.5-0.224,0.5-0.5C20,53.224,19.776,53,19.5,53z"/><path fill="#fff" d="M19.5,55c-0.177,0-4.823,0-5,0c-0.276,0-0.5,0.224-0.5,0.5c0,0.276,0.224,0.5,0.5,0.5 c0.177,0,4.823,0,5,0c0.276,0,0.5-0.224,0.5-0.5C20,55.224,19.776,55,19.5,55z"/><path fill="#fff" d="M24.5,57c-0.177,0-2.823,0-3,0c-0.276,0-0.5,0.224-0.5,0.5c0,0.276,0.224,0.5,0.5,0.5 c0.177,0,2.823,0,3,0c0.276,0,0.5-0.224,0.5-0.5C25,57.224,24.776,57,24.5,57z"/><path fill="#fff" d="M84.5,42h-10c-0.276,0-0.5-0.224-0.5-0.5s0.224-0.5,0.5-0.5h10c0.276,0,0.5,0.224,0.5,0.5 S84.776,42,84.5,42z"/><path fill="#fff" d="M88.5,42h-2c-0.276,0-0.5-0.224-0.5-0.5s0.224-0.5,0.5-0.5h2c0.276,0,0.5,0.224,0.5,0.5 S88.776,42,88.5,42z"/><path fill="#fff" d="M93.5,44h-10c-0.276,0-0.5-0.224-0.5-0.5s0.224-0.5,0.5-0.5h10c0.276,0,0.5,0.224,0.5,0.5 S93.777,44,93.5,44z"/><path fill="#fff" d="M81.5,44h-1c-0.276,0-0.5-0.224-0.5-0.5s0.224-0.5,0.5-0.5h1c0.276,0,0.5,0.224,0.5,0.5 S81.776,44,81.5,44z"/><path fill="#fff" d="M78.375,44H76.5c-0.276,0-0.5-0.224-0.5-0.5s0.224-0.5,0.5-0.5h1.875c0.276,0,0.5,0.224,0.5,0.5 S78.651,44,78.375,44z"/><path fill="#fff" d="M87.5,40h-5c-0.276,0-0.5-0.224-0.5-0.5s0.224-0.5,0.5-0.5h5c0.276,0,0.5,0.224,0.5,0.5 S87.777,40,87.5,40z"/><path fill="#fff" d="M84.5,46h-2c-0.276,0-0.5-0.224-0.5-0.5s0.224-0.5,0.5-0.5h2c0.276,0,0.5,0.224,0.5,0.5 S84.776,46,84.5,46z"/><path fill="#fdfcef" d="M67.7,53.8v-8.6h3.712c0.766,0,1.388,0.622,1.388,1.388v5.824c0,0.766-0.622,1.388-1.388,1.388 H67.7z"/><path fill="#472b29" d="M71.412,45.9c0.379,0,0.688,0.309,0.688,0.688v5.824c0,0.379-0.309,0.688-0.688,0.688H68.4v-7.2 H71.412 M71.412,44.5H67v10h4.412c1.153,0,2.088-0.935,2.088-2.088v-5.824C73.5,45.435,72.565,44.5,71.412,44.5L71.412,44.5z"/><path fill="#fdfcef" d="M31.088,53.8c-0.766,0-1.388-0.622-1.388-1.388v-5.824c0-0.766,0.622-1.388,1.388-1.388H34.8v8.6 H31.088z"/><path fill="#472b29" d="M34.1,45.9v7.2h-3.012c-0.379,0-0.688-0.309-0.688-0.688v-5.824c0-0.379,0.309-0.688,0.688-0.688 H34.1 M35.5,44.5h-4.412C29.935,44.5,29,45.435,29,46.588v5.824c0,1.153,0.935,2.088,2.088,2.088H35.5V44.5L35.5,44.5z"/><path fill="#cbc9bc" d="M35,67.5l-2.75-2.875c0,0-6.5-6.375,1.75-12.625c3,5,7,10,7,10L35,67.5z"/><path fill="#cbc9bc" d="M68.812,66.813l3.688-4.375c0,0,4-5.875-4-9.875C65.5,57.563,62,62,62,62L68.812,66.813z"/><path fill="#fff" d="M51.562,22.688c10.53,0,19.555,6.149,19.375,18.125C70.75,53.313,62.03,67.438,51.5,67.438 c-5.748,0-10.995-4.247-14.594-10.168C33.912,52.344,32.057,46.261,32,40.5c-0.118-11.977,9.158-17.813,19.687-17.813"/><path fill="#472b29" d="M36.905,57.77c-0.168,0-0.333-0.085-0.427-0.24c-3.108-5.111-4.923-11.316-4.979-17.024 c-0.003-0.276,0.219-0.502,0.495-0.505c0.313-0.021,0.502,0.219,0.505,0.495c0.055,5.533,1.815,11.553,4.832,16.515 c0.144,0.236,0.069,0.544-0.167,0.687C37.084,57.746,36.994,57.77,36.905,57.77z"/><path fill="#472b29" d="M51.5,67.938c-4.866,0-9.684-2.921-13.564-8.225c-0.163-0.223-0.115-0.535,0.108-0.698 c0.221-0.164,0.535-0.115,0.698,0.108c3.688,5.039,8.219,7.814,12.758,7.814c10.444,0,18.756-14.048,18.938-26.133 c0.004-0.273,0.228-0.492,0.5-0.492c0.002,0,0.005,0,0.008,0c0.275,0.004,0.496,0.231,0.492,0.508 C71.249,53.36,62.499,67.938,51.5,67.938z"/><path fill="#836f61" d="M38.25,61.813l9.727-8.249c1.75-1.484,4.312-1.504,6.086-0.047l10.25,8.421L38.25,61.813z"/><path fill="#472b29" d="M64.313,62.438c-0.001,0-0.002,0-0.002,0l-26.063-0.125c-0.21-0.001-0.396-0.132-0.468-0.329 c-0.071-0.196-0.014-0.417,0.146-0.552l7.854-6.661c0.211-0.179,0.526-0.153,0.704,0.058c0.179,0.211,0.153,0.526-0.058,0.704 l-6.823,5.787l23.304,0.111l-9.163-7.527c-1.589-1.307-3.878-1.288-5.445,0.042c-0.209,0.178-0.524,0.154-0.705-0.059 c-0.178-0.211-0.152-0.526,0.059-0.705c1.936-1.639,4.765-1.661,6.727-0.052l10.25,8.421c0.163,0.135,0.225,0.357,0.153,0.557 C64.711,62.306,64.523,62.438,64.313,62.438z"/><path fill="#fff" d="M67.937,63.75c-6-3-11.437-5.75-11.437-5.75l-2.597-1.082c-1.837-0.766-3.91-0.733-5.722,0.091 L46,58c0,0-5.375,2.813-11.375,5.813S38,75,38,75l13.009-4.341L65,75C65,75,73.937,66.75,67.937,63.75z"/><path fill="#472b29" d="M34.625,64.313c-0.183,0-0.359-0.102-0.447-0.276c-0.123-0.247-0.023-0.547,0.224-0.671 c5.927-2.964,11.313-5.78,11.367-5.809l2.205-1.003c1.933-0.879,4.164-0.913,6.121-0.098l2.598,1.082 c0.033,0.016,5.47,2.766,11.469,5.765c0.247,0.124,0.347,0.424,0.224,0.671c-0.124,0.247-0.422,0.349-0.671,0.224 c-6.001-3.001-11.439-5.751-11.439-5.751L53.71,57.38c-1.702-0.711-3.641-0.679-5.322,0.084l-2.181,0.991 c-0.029,0.016-5.423,2.837-11.358,5.805C34.776,64.296,34.7,64.313,34.625,64.313z"/><path fill="#cbc9bc" d="M47.906,66.049c0.183-0.275,0.368-0.546,0.562-0.803c0.741-0.977,1.619-1.746,3.032-1.746 c0.4,0,0.763,0.062,1.095,0.172c0.256,0.085,0.494,0.199,0.717,0.336c2.305,1.411,3.08,5.278,5.938,5.278c1.937,0,2.737,0,4.359,0 c1.873,0,3.391,1.511,3.391,3.375v0C67,74.525,65.062,77,61.672,77c-7.266,0-5.328-4.821-10.111-4.821 c-4.904,0-2.967,4.821-10.232,4.821C37.937,77,36,74.525,36,72.661v0c0-1.864,1.518-3.375,3.391-3.375c1.579,0,3.391,0,4.359,0 c1.811,0,2.777-1.175,3.646-2.466C47.568,66.564,47.736,66.305,47.906,66.049"/><path fill="#472b29" d="M63.625,53.625c-2.354,0-4.684-1.55-6.936-3.048c-1-0.666-2.034-1.354-3.029-1.873 c-1.352-0.705-2.969-0.705-4.32,0c-0.779,0.406-1.55,0.897-2.2,1.324c-0.231,0.15-0.541,0.088-0.692-0.144 s-0.087-0.541,0.144-0.692c0.672-0.44,1.469-0.948,2.286-1.375c1.643-0.856,3.604-0.856,5.246,0 c1.042,0.543,2.099,1.247,3.12,1.927c2.129,1.416,4.329,2.881,6.382,2.881c0.95,0,1.776-0.193,2.456-0.574 c0.24-0.132,0.546-0.05,0.681,0.192c0.135,0.24,0.049,0.545-0.192,0.681C65.739,53.389,64.749,53.625,63.625,53.625z"/><path fill="#472b29" d="M40.368,53.529c-0.235,0-0.445-0.168-0.49-0.408c-0.051-0.271,0.128-0.533,0.399-0.583 c1.458-0.271,2.953-1.146,4.352-2.051c0.229-0.15,0.541-0.085,0.691,0.148c0.149,0.231,0.083,0.541-0.148,0.691 c-1.484,0.96-3.083,1.891-4.711,2.193C40.43,53.526,40.399,53.529,40.368,53.529z"/><path fill="#472b29" d="M38.471,53.566c-0.022,0-0.045-0.001-0.067-0.005c-0.894-0.119-1.69-0.416-2.367-0.884 c-0.228-0.156-0.284-0.468-0.127-0.695c0.156-0.229,0.469-0.285,0.695-0.127c0.546,0.376,1.195,0.617,1.932,0.716 c0.273,0.036,0.466,0.287,0.429,0.562C38.932,53.384,38.717,53.566,38.471,53.566z"/><ellipse cx="42" cy="73.25" fill="#8889b9" rx="2.5" ry="1.75"/><path fill="#472b29" d="M42,75.25c-1.517,0-2.75-0.897-2.75-2c0-0.138,0.112-0.25,0.25-0.25s0.25,0.112,0.25,0.25 c0,0.827,1.01,1.5,2.25,1.5c0.699,0,1.348-0.215,1.779-0.589c0.106-0.088,0.264-0.077,0.354,0.025 c0.09,0.104,0.078,0.263-0.025,0.354C43.586,74.991,42.817,75.25,42,75.25z"/><path fill="#472b29" d="M44.5,73.5c-0.138,0-0.25-0.112-0.25-0.25c0-0.827-1.01-1.5-2.25-1.5 c-0.543,0-1.068,0.133-1.479,0.374c-0.12,0.07-0.272,0.029-0.343-0.089c-0.069-0.119-0.029-0.272,0.089-0.343 C40.755,71.407,41.37,71.25,42,71.25c1.517,0,2.75,0.897,2.75,2C44.75,73.388,44.638,73.5,44.5,73.5z"/><path fill="#8889b9" d="M61,71.5c1.381,0,2.5,0.784,2.5,1.75S62.381,75,61,75s-2.5-0.784-2.5-1.75S59.619,71.5,61,71.5"/><path fill="#472b29" d="M61,75.25c-1.517,0-2.75-0.897-2.75-2c0-0.138,0.112-0.25,0.25-0.25s0.25,0.112,0.25,0.25 c0,0.827,1.01,1.5,2.25,1.5c0.699,0,1.348-0.215,1.779-0.589c0.107-0.088,0.264-0.077,0.354,0.025 c0.09,0.104,0.078,0.263-0.025,0.354C62.586,74.991,61.817,75.25,61,75.25z"/><path fill="#472b29" d="M63.5,73.5c-0.138,0-0.25-0.112-0.25-0.25c0-0.827-1.01-1.5-2.25-1.5c-0.138,0-0.25-0.112-0.25-0.25 s0.112-0.25,0.25-0.25c1.517,0,2.75,0.897,2.75,2C63.75,73.388,63.638,73.5,63.5,73.5z"/><path fill="#472b29" d="M59.395,72.158c-0.086,0-0.169-0.044-0.216-0.123c-0.069-0.119-0.029-0.272,0.089-0.343 C59.755,71.407,60.37,71.25,61,71.25c0.138,0,0.25,0.112,0.25,0.25s-0.112,0.25-0.25,0.25c-0.543,0-1.068,0.133-1.479,0.374 C59.481,72.147,59.438,72.158,59.395,72.158z"/><path fill="#8889b9" d="M39.132,43.5h8.442c0.384,0,0.573,0.482,0.289,0.75c-1.278,1.208-3.912,3.523-6.031,4.25 c-2.515,0.863-3.581-1.18-3.827-3.749C37.941,44.078,38.475,43.5,39.132,43.5z"/><path fill="#472b29" d="M40.737,49.202c-0.524,0-1-0.137-1.423-0.408c-0.992-0.64-1.617-2.021-1.808-3.995 c-0.044-0.46,0.109-0.92,0.421-1.262C38.238,43.195,38.677,43,39.132,43c0.276,0,0.5,0.224,0.5,0.5s-0.224,0.5-0.5,0.5 c-0.174,0-0.343,0.076-0.464,0.209c-0.124,0.137-0.183,0.313-0.165,0.494c0.157,1.635,0.638,2.789,1.354,3.25 c0.475,0.305,1.066,0.329,1.813,0.074c2.008-0.689,4.593-2.963,5.73-4.027h-6.025c-0.276,0-0.5-0.224-0.5-0.5s0.224-0.5,0.5-0.5 h6.199c0.38,0,0.716,0.229,0.858,0.585c0.143,0.359,0.055,0.763-0.225,1.028c-1.383,1.307-4.027,3.609-6.214,4.359 C41.55,49.126,41.13,49.202,40.737,49.202z M47.574,44h0.01H47.574z"/><path fill="#8889b9" d="M63.868,43.5h-8.442c-0.384,0-0.573,0.482-0.289,0.75c1.278,1.208,3.912,3.523,6.031,4.25 c2.515,0.863,3.581-1.18,3.827-3.749C65.059,44.078,64.525,43.5,63.868,43.5z"/><path fill="#472b29" d="M62.259,49.2c-0.393,0-0.812-0.075-1.253-0.228c-2.188-0.751-4.832-3.054-6.213-4.359 c-0.279-0.265-0.368-0.668-0.226-1.027C54.709,43.229,55.046,43,55.426,43h8.442c0.455,0,0.894,0.195,1.204,0.537 c0.312,0.342,0.465,0.802,0.421,1.262c-0.098,1.005-0.306,1.859-0.619,2.538c-0.116,0.251-0.412,0.358-0.664,0.244 c-0.25-0.116-0.359-0.413-0.244-0.664c0.267-0.576,0.445-1.321,0.531-2.214c0.018-0.182-0.041-0.357-0.165-0.494 C64.211,44.076,64.042,44,63.868,44h-8.268c1.137,1.064,3.719,3.337,5.729,4.027c0.587,0.201,1.095,0.227,1.51,0.077 c0.255-0.097,0.546,0.039,0.64,0.3c0.095,0.26-0.04,0.546-0.3,0.64C62.893,49.148,62.585,49.2,62.259,49.2z M55.426,44L55.426,44 L55.426,44z"/><rect width="38" height="2" x="32.5" y="39.5" fill="#836f61"/><path fill="#472b29" d="M51.5,23.4c8.992,0,18.6,4.558,18.6,17.35c0,3.649-0.674,7.463-1.949,11.03l-0.385,1.076 l0.977,0.593c4.49,2.723,5.311,5.021,3.106,8.748l-2.246,2.771l-0.379,0.467l0.078,0.596c0.284,2.169-2.803,6.367-4.821,8.508 l-0.031,0.033l-0.029,0.035C63.963,75.165,62.91,76.1,61,76.1c-3.359,0-3.965-0.982-4.732-2.224 c-0.723-1.171-1.713-2.776-4.706-2.776c-3.054,0-4.073,1.61-4.816,2.785C45.964,75.123,45.346,76.1,42,76.1 c-2.152,0-3.222-1.189-3.583-1.7l-0.061-0.086l-0.073-0.076c-2.82-2.938-5.43-6.834-4.961-8.595l0.19-0.715l-0.483-0.56 l-1.937-2.245c-1.145-1.541-1.567-2.994-1.252-4.318c0.38-1.599,1.871-3.086,4.314-4.3l1.114-0.553l-0.419-1.172 c-1.275-3.567-1.949-7.381-1.949-11.03C32.9,27.958,42.508,23.4,51.5,23.4 M51.5,22c-11.046,0-20,6.186-20,18.75 c0,3.924,0.732,7.868,2.031,11.501C28,55,27,59,30,63l1.969,2.282c-0.879,3.303,4.41,8.993,5.304,9.924 C38.157,76.46,39.773,77.5,42,77.5c7.5,0,4.5-5,9.562-5c4.938,0,1.938,5,9.438,5c2.051,0,3.583-0.884,4.503-2.003 c0.046-0.049,5.667-5.985,5.187-9.647L73,63c3-5,1-8-3.531-10.749c1.299-3.634,2.031-7.577,2.031-11.501 C71.5,28.186,62.546,22,51.5,22L51.5,22z"/><ellipse cx="51.5" cy="70" fill="#836f61" rx="3" ry="4.5"/><path fill="#472b29" d="M51.5,75c-1.963,0-3.5-2.196-3.5-5s1.537-5,3.5-5s3.5,2.196,3.5,5S53.463,75,51.5,75z M51.5,66 c-1.355,0-2.5,1.832-2.5,4s1.145,4,2.5,4s2.5-1.832,2.5-4S52.855,66,51.5,66z"/><path fill="#472b29" d="M32.5,58c-0.183,0-0.359-0.102-0.447-0.276c-0.123-0.247-0.023-0.547,0.224-0.671l2-1 c0.247-0.123,0.547-0.023,0.671,0.224c0.123,0.247,0.023,0.547-0.224,0.671l-2,1C32.651,57.983,32.575,58,32.5,58z"/><path fill="#472b29" d="M33.5,60c-0.183,0-0.359-0.102-0.447-0.276c-0.123-0.247-0.023-0.547,0.224-0.671l2-1 c0.248-0.124,0.547-0.023,0.671,0.224c0.123,0.247,0.023,0.547-0.224,0.671l-2,1C33.651,59.983,33.575,60,33.5,60z"/><g><path fill="#472b29" d="M34.5,62c-0.183,0-0.359-0.102-0.447-0.276c-0.123-0.247-0.023-0.547,0.224-0.671l2-1 c0.248-0.125,0.547-0.023,0.671,0.224c0.123,0.247,0.023,0.547-0.224,0.671l-2,1C34.651,61.983,34.575,62,34.5,62z"/></g><g><path fill="#472b29" d="M70.5,58c-0.075,0-0.151-0.017-0.224-0.053l-2-1c-0.247-0.124-0.347-0.424-0.224-0.671 c0.125-0.246,0.424-0.345,0.671-0.224l2,1c0.247,0.124,0.347,0.424,0.224,0.671C70.859,57.898,70.683,58,70.5,58z"/></g><g><path fill="#472b29" d="M69.5,60c-0.075,0-0.151-0.017-0.224-0.053l-2-1c-0.247-0.124-0.347-0.424-0.224-0.671 c0.124-0.246,0.425-0.347,0.671-0.224l2,1c0.247,0.124,0.347,0.424,0.224,0.671C69.859,59.898,69.683,60,69.5,60z"/></g><g><path fill="#472b29" d="M68.5,62c-0.075,0-0.151-0.017-0.224-0.053l-2-1c-0.247-0.124-0.347-0.424-0.224-0.671 c0.124-0.247,0.424-0.348,0.671-0.224l2,1c0.247,0.124,0.347,0.424,0.224,0.671C68.859,61.898,68.683,62,68.5,62z"/></g><g><rect width="1" height="4" x="50.5" y="52" fill="#472b29"/></g><g><rect width="1" height="4" x="53" y="53" fill="#472b29"/></g><g><rect width="1" height="4" x="48" y="53" fill="#472b29"/></g><g><rect width="1" height="2.5" x="45" y="55.5" fill="#472b29"/></g><g><rect width="1" height="2.5" x="56" y="55.5" fill="#472b29"/></g><g><path fill="#472b29" d="M67,73.161c-0.276,0-0.5-0.224-0.5-0.5c0-1.585-1.297-2.875-2.891-2.875H59.25 c-1.963,0-3.03-1.522-4.063-2.994C54.179,65.356,53.228,64,51.5,64c-0.858,0-1.537,0.317-2.201,1.028 c-0.187,0.202-0.505,0.213-0.706,0.024c-0.202-0.188-0.213-0.504-0.024-0.706C49.425,63.428,50.356,63,51.5,63 c2.247,0,3.447,1.71,4.505,3.218c0.968,1.378,1.803,2.568,3.245,2.568h4.359c2.146,0,3.891,1.738,3.891,3.875 C67.5,72.938,67.276,73.161,67,73.161z"/></g><g><path fill="#472b29" d="M45.665,69.227c-0.162,0-0.321-0.079-0.417-0.225c-0.152-0.23-0.089-0.54,0.142-0.692 c0.763-0.504,1.313-1.342,1.896-2.229l0.127-0.192c0.15-0.23,0.462-0.296,0.692-0.142c0.23,0.151,0.294,0.462,0.142,0.692 l-0.125,0.19c-0.612,0.933-1.246,1.896-2.181,2.514C45.855,69.2,45.76,69.227,45.665,69.227z"/></g><g><path fill="#472b29" d="M36,73.161c-0.276,0-0.5-0.224-0.5-0.5c0-2.137,1.745-3.875,3.891-3.875h4.359 c0.276,0,0.5,0.224,0.5,0.5s-0.224,0.5-0.5,0.5h-4.359c-1.594,0-2.891,1.29-2.891,2.875C36.5,72.938,36.276,73.161,36,73.161z"/></g><g><path fill="#472b29" d="M70.5,39.73H52.563c-0.138,0-0.25-0.112-0.25-0.25s0.112-0.25,0.25-0.25H70.5 c0.138,0,0.25,0.112,0.25,0.25S70.638,39.73,70.5,39.73z"/></g><g><path fill="#472b29" d="M51.25,39.73h-8.188c-0.138,0-0.25-0.112-0.25-0.25s0.112-0.25,0.25-0.25h8.188 c0.138,0,0.25,0.112,0.25,0.25S51.388,39.73,51.25,39.73z"/></g><g><path fill="#472b29" d="M40.875,39.73H34c-0.138,0-0.25-0.112-0.25-0.25s0.112-0.25,0.25-0.25h6.875 c0.138,0,0.25,0.112,0.25,0.25S41.013,39.73,40.875,39.73z"/></g><g><path fill="#472b29" d="M45.438,41.75H32.5c-0.138,0-0.25-0.112-0.25-0.25s0.112-0.25,0.25-0.25h12.938 c0.138,0,0.25,0.112,0.25,0.25S45.575,41.75,45.438,41.75z"/></g><g><path fill="#472b29" d="M70.5,41.75H48.313c-0.138,0-0.25-0.112-0.25-0.25s0.112-0.25,0.25-0.25H70.5 c0.138,0,0.25,0.112,0.25,0.25S70.638,41.75,70.5,41.75z"/></g><g><path fill="#472b29" d="M45.602,26.945c-0.217,0-0.417-0.142-0.48-0.36c-0.077-0.266,0.076-0.543,0.341-0.62 c1.599-0.464,3.371-0.748,5.27-0.846c0.305-0.025,0.51,0.197,0.524,0.474c0.015,0.275-0.197,0.511-0.474,0.524 c-1.82,0.094-3.517,0.366-5.041,0.809C45.694,26.939,45.647,26.945,45.602,26.945z"/></g><g><path fill="#472b29" d="M36.244,35.882c-0.028,0-0.056-0.002-0.084-0.007c-0.272-0.046-0.456-0.304-0.41-0.576 c0.037-0.22,0.975-5.403,7.046-8.321c0.249-0.12,0.548-0.016,0.667,0.233c0.12,0.249,0.016,0.548-0.233,0.667 c-5.61,2.697-6.485,7.538-6.493,7.587C36.695,35.709,36.483,35.882,36.244,35.882z"/></g><g><path fill="#fdfcef" d="M80.5,71.5c0,0,1.567,0,3.5,0s3.5-1.567,3.5-3.5c0-1.781-1.335-3.234-3.055-3.455 C84.473,64.366,84.5,64.187,84.5,64c0-1.933-1.567-3.5-3.5-3.5c-1.032,0-1.95,0.455-2.59,1.165 c-0.384-1.808-1.987-3.165-3.91-3.165c-2.209,0-4,1.791-4,4c0,0.191,0.03,0.374,0.056,0.558C70.128,62.714,69.592,62.5,69,62.5 c-1.228,0-2.245,0.887-2.455,2.055C66.366,64.527,66.187,64.5,66,64.5c-1.933,0-3.5,1.567-3.5,3.5s1.567,3.5,3.5,3.5s7.5,0,7.5,0 V72h7V71.5z"/><path fill="#472b29" d="M82.25,67C82.112,67,82,66.888,82,66.75c0-1.223,0.995-2.218,2.218-2.218 c0.034,0.009,0.737-0.001,1.244,0.136c0.133,0.036,0.212,0.173,0.176,0.306c-0.036,0.134-0.173,0.213-0.306,0.176 c-0.444-0.12-1.1-0.12-1.113-0.118c-0.948,0-1.719,0.771-1.719,1.718C82.5,66.888,82.388,67,82.25,67z"/><circle cx="75.5" cy="71.5" r=".5" fill="#472b29"/><path fill="#472b29" d="M84,72h-3.5c-0.276,0-0.5-0.224-0.5-0.5s0.224-0.5,0.5-0.5H84c1.654,0,3-1.346,3-3 c0-1.496-1.125-2.768-2.618-2.959c-0.134-0.018-0.255-0.088-0.336-0.196s-0.115-0.244-0.094-0.377C83.975,64.314,84,64.16,84,64 c0-1.654-1.346-3-3-3c-0.85,0-1.638,0.355-2.219,1c-0.125,0.139-0.321,0.198-0.5,0.148c-0.182-0.049-0.321-0.195-0.36-0.379 C77.58,60.165,76.141,59,74.5,59c-1.93,0-3.5,1.57-3.5,3.5c0,0.143,0.021,0.28,0.041,0.418c0.029,0.203-0.063,0.438-0.242,0.54 c-0.179,0.102-0.396,0.118-0.556-0.01C69.878,63.155,69.449,63,69,63c-0.966,0-1.792,0.691-1.963,1.644 c-0.048,0.267-0.296,0.446-0.569,0.405C66.314,65.025,66.16,65,66,65c-1.654,0-3,1.346-3,3s1.346,3,3,3h7.5 c0.276,0,0.5,0.224,0.5,0.5S73.776,72,73.5,72H66c-2.206,0-4-1.794-4-4s1.794-4,4-4c0.059,0,0.116,0.002,0.174,0.006 C66.588,62.82,67.711,62,69,62c0.349,0,0.689,0.061,1.011,0.18C70.176,59.847,72.126,58,74.5,58c1.831,0,3.466,1.127,4.153,2.774 C79.333,60.276,80.155,60,81,60c2.206,0,4,1.794,4,4c0,0.048-0.001,0.095-0.004,0.142C86.739,64.59,88,66.169,88,68 C88,70.206,86.206,72,84,72z"/><path fill="#472b29" d="M78.5,71c-0.159,0-0.841,0-1,0c-0.276,0-0.5,0.224-0.5,0.5c0,0.276,0.224,0.5,0.5,0.5 c0.159,0,0.841,0,1,0c0.276,0,0.5-0.224,0.5-0.5C79,71.224,78.776,71,78.5,71z"/></g></svg>