<svg xmlns="http://www.w3.org/2000/svg"  viewBox="0 0 100 100" width="100px" height="100px" baseProfile="basic"><path fill="#c7ede6" d="M87.215,56.71C88.35,54.555,89,52.105,89,49.5c0-6.621-4.159-12.257-10.001-14.478	C78.999,35.015,79,35.008,79,35c0-11.598-9.402-21-21-21c-9.784,0-17.981,6.701-20.313,15.757C36.211,29.272,34.638,29,33,29	c-7.692,0-14.023,5.793-14.89,13.252C12.906,43.353,9,47.969,9,53.5C9,59.851,14.149,65,20.5,65c0.177,0,0.352-0.012,0.526-0.022	C21.022,65.153,21,65.324,21,65.5C21,76.822,30.178,86,41.5,86c6.437,0,12.175-2.972,15.934-7.614C59.612,80.611,62.64,82,66,82	c4.65,0,8.674-2.65,10.666-6.518C77.718,75.817,78.837,76,80,76c6.075,0,11-4.925,11-11C91,61.689,89.53,58.727,87.215,56.71z"/><path fill="#fdfcef" d="M64.21,43.454c0,0-3.64,0-6.125,0s-4.5-2.015-4.5-4.5c0-2.333,1.782-4.229,4.055-4.455 c-0.022-0.181-0.055-0.358-0.055-0.545c0-2.485,2.015-4.5,4.5-4.5c1.438,0,2.703,0.686,3.527,1.736 c0.14-2.636,2.302-4.736,4.973-4.736c2.761,0,5,2.239,5,5c0,0.446-0.077,0.87-0.187,1.282c0.642-0.777,1.6-1.282,2.687-1.282 c1.781,0,3.234,1.335,3.455,3.055c0.181-0.022,0.358-0.055,0.545-0.055c2.485,0,4.5,2.015,4.5,4.5s-2.015,4.5-4.5,4.5s-9.5,0-9.5,0 H67.21v0.5h-3V43.454z"/><path fill="#472b29" d="M70.585,25.954c3.033,0,5.5,2.467,5.5,5.5c0,0.016,0,0.031,0,0.047c0.602-0.354,1.29-0.547,2-0.547 c1.831,0,3.411,1.261,3.858,3.005c0.047-0.003,0.095-0.005,0.142-0.005c2.757,0,5,2.243,5,5s-2.243,5-5,5H67.21 c-0.276,0-0.5-0.224-0.5-0.5s0.224-0.5,0.5-0.5h14.875c2.206,0,4-1.794,4-4c0-2.206-1.794-4-4-4c-0.117,0-0.23,0.017-0.343,0.032 l-0.141,0.019c-0.021,0.003-0.041,0.004-0.062,0.004c-0.246,0-0.462-0.185-0.495-0.437c-0.191-1.493-1.463-2.618-2.959-2.618 c-0.885,0-1.723,0.401-2.301,1.1c-0.098,0.118-0.241,0.182-0.386,0.182c-0.078,0-0.156-0.018-0.228-0.056 c-0.209-0.107-0.314-0.346-0.254-0.573c0.116-0.436,0.17-0.802,0.17-1.153c0-2.481-2.019-4.5-4.5-4.5 c-2.381,0-4.347,1.872-4.474,4.263c-0.011,0.208-0.15,0.387-0.349,0.45c-0.05,0.016-0.101,0.024-0.152,0.024 c-0.15,0-0.296-0.069-0.392-0.192c-0.771-0.982-1.913-1.545-3.134-1.545c-2.206,0-4,1.794-4,4c0,0.117,0.017,0.23,0.032,0.343 l0.019,0.141c0.016,0.134-0.022,0.268-0.106,0.373s-0.207,0.172-0.34,0.185c-2.055,0.205-3.604,1.906-3.604,3.958 c0,2.206,1.794,4,4,4h6.125c0.276,0,0.5,0.224,0.5,0.5s-0.224,0.5-0.5,0.5h-6.125c-2.757,0-5-2.243-5-5 c0-2.397,1.689-4.413,4.003-4.877c-0.002-0.041-0.003-0.082-0.003-0.123c0-2.757,2.243-5,5-5c1.176,0,2.293,0.416,3.183,1.164 C65.867,27.714,68.03,25.954,70.585,25.954L70.585,25.954z"/><path fill="#472b29" d="M72.085,32.954c1.403,0,2.609,0.999,2.913,2.341c0.368-0.222,0.786-0.341,1.212-0.341 c1.202,0,2.198,0.897,2.353,2.068c0.203-0.046,0.396-0.068,0.585-0.068c1.529,0,2.811,1.2,2.918,2.732 c0.009,0.138-0.094,0.258-0.232,0.268c-0.006,0-0.012,0-0.018,0c-0.13,0-0.24-0.101-0.249-0.232 c-0.089-1.271-1.151-2.268-2.419-2.268c-0.229,0-0.47,0.042-0.738,0.127c-0.022,0.007-0.045,0.01-0.067,0.01 c-0.055,0-0.11-0.02-0.156-0.054c-0.064-0.047-0.102-0.129-0.102-0.209c0-1.034-0.841-1.875-1.875-1.875 c-0.447,0-0.885,0.168-1.231,0.473c-0.047,0.041-0.106,0.063-0.165,0.063c-0.032,0-0.063-0.006-0.093-0.019 c-0.088-0.035-0.148-0.117-0.155-0.212c-0.102-1.292-1.191-2.305-2.479-2.305c-0.208,0-0.425,0.034-0.682,0.107 c-0.023,0.007-0.047,0.01-0.07,0.01c-0.109,0-0.207-0.073-0.239-0.182c-0.038-0.133,0.039-0.271,0.172-0.309 C71.569,32.994,71.829,32.954,72.085,32.954L72.085,32.954z"/><path fill="#472b29" d="M58.202,34.454c1.326,0,2.508,0.897,2.874,2.182c0.038,0.133-0.039,0.271-0.172,0.309 c-0.023,0.007-0.046,0.01-0.068,0.01c-0.109,0-0.209-0.072-0.24-0.182c-0.306-1.071-1.29-1.819-2.394-1.819 c-0.117,0-0.23,0.014-0.342,0.029c-0.012,0.002-0.023,0.003-0.035,0.003c-0.121,0-0.229-0.092-0.246-0.217 c-0.019-0.137,0.077-0.263,0.214-0.281C57.928,34.47,58.063,34.454,58.202,34.454L58.202,34.454z"/><path fill="#fff" d="M21,42.813H11c-0.276,0-0.5-0.224-0.5-0.5s0.224-0.5,0.5-0.5h10c0.276,0,0.5,0.224,0.5,0.5 S21.277,42.813,21,42.813z"/><path fill="#fff" d="M24,42.813h-1c-0.276,0-0.5-0.224-0.5-0.5s0.224-0.5,0.5-0.5h1c0.276,0,0.5,0.224,0.5,0.5 S24.277,42.813,24,42.813z"/><path fill="#fff" d="M28.991,44.813H20c-0.276,0-0.5-0.224-0.5-0.5s0.224-0.5,0.5-0.5h8.991c0.276,0,0.5,0.224,0.5,0.5 S29.267,44.813,28.991,44.813z"/><path fill="#fff" d="M18,44.813h-1c-0.276,0-0.5-0.224-0.5-0.5s0.224-0.5,0.5-0.5h1c0.276,0,0.5,0.224,0.5,0.5 S18.277,44.813,18,44.813z"/><path fill="#fff" d="M15,44.813h-2c-0.276,0-0.5-0.224-0.5-0.5s0.224-0.5,0.5-0.5h2c0.276,0,0.5,0.224,0.5,0.5 S15.277,44.813,15,44.813z"/><path fill="#fff" d="M21,46.813h-2c-0.276,0-0.5-0.224-0.5-0.5s0.224-0.5,0.5-0.5h2c0.276,0,0.5,0.224,0.5,0.5 S21.276,46.813,21,46.813z"/><path fill="#fff" d="M24,37.813c-0.177,0-0.823,0-1,0c-0.276,0-0.5,0.224-0.5,0.5c0,0.276,0.224,0.5,0.5,0.5 c0.177,0,0.823,0,1,0c0.276,0,0.5-0.224,0.5-0.5C24.5,38.037,24.276,37.813,24,37.813z"/><path fill="#fff" d="M24,39.813c-0.177,0-4.823,0-5,0c-0.276,0-0.5,0.224-0.5,0.5c0,0.276,0.224,0.5,0.5,0.5 c0.177,0,4.823,0,5,0c0.276,0,0.5-0.224,0.5-0.5C24.5,40.037,24.276,39.813,24,39.813z"/><path fill="#fff" d="M29,41.813c-0.177,0-2.823,0-3,0c-0.276,0-0.5,0.224-0.5,0.5c0,0.276,0.224,0.5,0.5,0.5 c0.177,0,2.823,0,3,0c0.276,0,0.5-0.224,0.5-0.5C29.5,42.037,29.276,41.813,29,41.813z"/><g><path fill="#fff" d="M84.5,68h-10c-0.276,0-0.5-0.224-0.5-0.5s0.224-0.5,0.5-0.5h10c0.276,0,0.5,0.224,0.5,0.5 S84.776,68,84.5,68z"/><path fill="#fff" d="M88.5,68h-2c-0.276,0-0.5-0.224-0.5-0.5s0.224-0.5,0.5-0.5h2c0.276,0,0.5,0.224,0.5,0.5 S88.776,68,88.5,68z"/><path fill="#fff" d="M93.5,70h-10c-0.276,0-0.5-0.224-0.5-0.5s0.224-0.5,0.5-0.5h10c0.276,0,0.5,0.224,0.5,0.5 S93.777,70,93.5,70z"/><path fill="#fff" d="M81.5,70h-1c-0.276,0-0.5-0.224-0.5-0.5s0.224-0.5,0.5-0.5h1c0.276,0,0.5,0.224,0.5,0.5 S81.776,70,81.5,70z"/><path fill="#fff" d="M78.47,70H76.5c-0.276,0-0.5-0.224-0.5-0.5s0.224-0.5,0.5-0.5h1.97c0.276,0,0.5,0.224,0.5,0.5 S78.746,70,78.47,70z"/><path fill="#fff" d="M87.5,66h-5c-0.276,0-0.5-0.224-0.5-0.5s0.224-0.5,0.5-0.5h5c0.276,0,0.5,0.224,0.5,0.5 S87.777,66,87.5,66z"/><path fill="#fff" d="M84.5,72h-2c-0.276,0-0.5-0.224-0.5-0.5s0.224-0.5,0.5-0.5h2c0.276,0,0.5,0.224,0.5,0.5 S84.776,72,84.5,72z"/></g><g><path fill="#fdf5a9" d="M70.43,54.139L79,51l-8.57-3.139c-1.326-7.803-7.486-13.963-15.29-15.29L52,24l-3.14,8.571 c-7.803,1.326-13.964,7.487-15.29,15.29L25,51l8.57,3.139c1.327,7.803,7.487,13.963,15.29,15.289L52,78l3.14-8.571 C62.943,68.102,69.103,61.942,70.43,54.139z M66.439,46.739l-7.449-2.729l-2.729-7.449C61.113,38.055,64.946,41.888,66.439,46.739z M47.739,36.562l-2.729,7.449l-7.449,2.729C39.054,41.888,42.888,38.054,47.739,36.562z M37.562,55.261l7.449,2.729l2.728,7.448 C42.888,63.945,39.054,60.112,37.562,55.261z M56.261,65.438l2.728-7.448l7.449-2.729C64.946,60.112,61.112,63.945,56.261,65.438z"/><path fill="#472b29" d="M58.521,44.181c0.051,0.139,0.159,0.247,0.298,0.298l7.45,2.73c0.056,0.021,0.114,0.03,0.172,0.03 c0.126,0,0.25-0.048,0.344-0.137c0.138-0.131,0.19-0.328,0.134-0.51c-1.543-5.024-5.473-8.954-10.511-10.512 c-0.181-0.058-0.379-0.005-0.51,0.133c-0.131,0.139-0.173,0.338-0.107,0.517L58.521,44.181z M66.269,54.791l-7.45,2.73 c-0.139,0.051-0.247,0.159-0.298,0.298l-2.73,7.45c-0.065,0.179-0.023,0.378,0.107,0.517c0.096,0.101,0.228,0.155,0.362,0.155 c0.05,0,0.1-0.007,0.147-0.022c5.038-1.558,8.968-5.487,10.511-10.512c0.057-0.182,0.004-0.379-0.134-0.51 C66.648,54.768,66.447,54.725,66.269,54.791z M45.479,57.819c-0.051-0.139-0.159-0.247-0.298-0.298l-7.45-2.73 c-0.178-0.066-0.379-0.023-0.516,0.106c-0.138,0.131-0.19,0.328-0.134,0.51c1.543,5.024,5.473,8.954,10.511,10.512 c0.049,0.016,0.098,0.022,0.147,0.022c0.135,0,0.267-0.055,0.362-0.155c0.131-0.139,0.173-0.338,0.107-0.517L45.479,57.819z M47.593,36.081c-5.035,1.547-8.965,5.477-10.512,10.512c-0.057,0.182-0.004,0.379,0.134,0.51c0.094,0.089,0.218,0.137,0.344,0.137 c0.058,0,0.116-0.01,0.172-0.03l7.45-2.73c0.139-0.051,0.247-0.159,0.298-0.298l2.73-7.45c0.065-0.178,0.023-0.378-0.106-0.516 C47.971,36.077,47.773,36.022,47.593,36.081z"/><path fill="#472b29" d="M52,78.7c-0.294,0-0.557-0.184-0.657-0.459l-3.002-8.195c-7.783-1.492-13.895-7.604-15.388-15.387 l-8.194-3.002C24.483,51.557,24.3,51.294,24.3,51s0.184-0.557,0.459-0.657l8.194-3.002c1.492-7.783,7.604-13.896,15.388-15.388 l3.002-8.194C51.443,23.483,51.706,23.3,52,23.3l0,0c0.294,0,0.557,0.184,0.657,0.459l3.002,8.195 c7.784,1.491,13.896,7.604,15.388,15.387l8.194,3.002C79.517,50.443,79.7,50.706,79.7,51s-0.184,0.557-0.459,0.657l-8.194,3.002 c-1.491,7.782-7.604,13.894-15.388,15.387l-3.002,8.195C52.557,78.517,52.294,78.7,52,78.7z M27.035,51l6.776,2.482 c0.235,0.086,0.407,0.292,0.449,0.54c1.279,7.523,7.193,13.438,14.717,14.716c0.248,0.042,0.454,0.214,0.54,0.449L52,75.965 l2.482-6.777c0.086-0.235,0.292-0.407,0.54-0.449c7.524-1.279,13.438-7.193,14.717-14.716c0.042-0.248,0.214-0.454,0.449-0.54 L76.965,51l-6.776-2.482c-0.235-0.086-0.407-0.292-0.449-0.54c-1.278-7.523-7.192-13.438-14.717-14.716 c-0.248-0.042-0.454-0.214-0.54-0.449L52,26.035l-2.482,6.776c-0.086,0.235-0.292,0.407-0.54,0.449 c-7.523,1.278-13.438,7.193-14.717,14.717c-0.042,0.248-0.214,0.454-0.449,0.54L27.035,51z"/><path fill="#472b29" d="M65.343,49.657c-0.027,0-0.055-0.005-0.082-0.014l-8.709-3.041 c-0.131-0.046-0.199-0.188-0.154-0.318c0.046-0.131,0.188-0.195,0.318-0.154l8.709,3.041c0.131,0.046,0.199,0.188,0.154,0.318 C65.543,49.593,65.446,49.657,65.343,49.657z"/><path fill="#472b29" d="M56.092,45.063c-0.104,0-0.2-0.064-0.236-0.168l-2.882-8.252c-0.045-0.13,0.023-0.272,0.154-0.318 c0.132-0.042,0.272,0.023,0.318,0.154l2.882,8.252c0.045,0.13-0.023,0.272-0.154,0.318C56.146,45.059,56.119,45.063,56.092,45.063z"/><path fill="#472b29" d="M34.098,51.25c-0.104,0-0.2-0.064-0.236-0.168c-0.045-0.13,0.023-0.272,0.154-0.318L47.17,46.17 l4.594-13.154c0.035-0.101,0.13-0.168,0.236-0.168l0,0c0.106,0,0.201,0.067,0.236,0.168l0.735,2.106 c0.045,0.13-0.023,0.272-0.154,0.318c-0.13,0.042-0.273-0.023-0.318-0.154L52,33.856l-4.397,12.592 c-0.025,0.072-0.082,0.129-0.154,0.154L34.18,51.236C34.152,51.245,34.125,51.25,34.098,51.25z"/><path fill="#472b29" d="M36.646,52.14c-0.027,0-0.055-0.005-0.082-0.014l-0.73-0.255c-0.131-0.046-0.199-0.188-0.154-0.318 c0.046-0.131,0.188-0.196,0.318-0.154l0.73,0.255c0.131,0.046,0.199,0.188,0.154,0.318C36.846,52.075,36.749,52.14,36.646,52.14z"/><path fill="#472b29" d="M50.348,64.422c-0.104,0-0.2-0.064-0.236-0.168L47.17,55.83l-8.948-3.125 c-0.131-0.046-0.199-0.188-0.154-0.318c0.046-0.131,0.188-0.196,0.318-0.154l9.063,3.165c0.072,0.025,0.129,0.082,0.154,0.154 l2.981,8.538c0.045,0.13-0.023,0.272-0.154,0.318C50.402,64.417,50.375,64.422,50.348,64.422z"/><path fill="#472b29" d="M52,69.152c-0.106,0-0.201-0.067-0.236-0.168l-1.188-3.402c-0.045-0.13,0.023-0.272,0.154-0.318 c0.13-0.042,0.273,0.023,0.318,0.154L52,68.145l4.397-12.593c0.025-0.072,0.082-0.129,0.154-0.154L69.145,51l-2.285-0.798 c-0.131-0.046-0.199-0.188-0.154-0.318c0.046-0.131,0.188-0.196,0.318-0.154l2.961,1.034c0.101,0.035,0.168,0.13,0.168,0.236 s-0.067,0.201-0.168,0.236L56.83,55.83l-4.594,13.154C52.201,69.085,52.106,69.152,52,69.152z"/></g><g><path fill="#fdfcef" d="M28.216,73.243c0,0-1.567,0-3.5,0s-3.5-1.567-3.5-3.5c0-1.781,1.335-3.234,3.055-3.455 c-0.028-0.179-0.055-0.358-0.055-0.545c0-1.933,1.567-3.5,3.5-3.5c1.032,0,1.95,0.455,2.59,1.165 c0.384-1.808,1.987-3.165,3.91-3.165c2.209,0,4,1.791,4,4c0,0.191-0.03,0.374-0.056,0.558c0.428-0.344,0.965-0.558,1.556-0.558 c1.228,0,2.245,0.887,2.455,2.055c0.179-0.028,0.358-0.055,0.545-0.055c1.933,0,3.5,1.567,3.5,3.5s-1.567,3.5-3.5,3.5s-7.5,0-7.5,0 v0.5h-7V73.243z"/><path fill="#472b29" d="M26.466,68.743c0.138,0,0.25-0.112,0.25-0.25c0-1.223-0.995-2.218-2.218-2.218 c-0.034,0.009-0.737-0.001-1.244,0.136c-0.133,0.036-0.212,0.173-0.176,0.306c0.036,0.134,0.173,0.213,0.306,0.176 c0.444-0.12,1.1-0.12,1.113-0.118c0.948,0,1.719,0.771,1.719,1.718C26.216,68.631,26.328,68.743,26.466,68.743z"/><circle cx="33.216" cy="73.243" r=".5" fill="#472b29"/><path fill="#472b29" d="M24.716,73.743h3.5c0.276,0,0.5-0.224,0.5-0.5s-0.224-0.5-0.5-0.5h-3.5c-1.654,0-3-1.346-3-3 c0-1.496,1.125-2.768,2.618-2.959c0.134-0.018,0.255-0.088,0.336-0.196s0.115-0.244,0.094-0.377 c-0.024-0.153-0.049-0.308-0.049-0.468c0-1.654,1.346-3,3-3c0.85,0,1.638,0.355,2.219,1c0.125,0.139,0.321,0.198,0.5,0.148 c0.182-0.049,0.321-0.195,0.36-0.379c0.341-1.604,1.779-2.769,3.42-2.769c1.93,0,3.5,1.57,3.5,3.5c0,0.143-0.021,0.28-0.041,0.418 c-0.029,0.203,0.063,0.438,0.242,0.54c0.179,0.102,0.396,0.118,0.556-0.01c0.365-0.293,0.794-0.448,1.243-0.448 c0.966,0,1.792,0.691,1.963,1.644c0.048,0.267,0.296,0.446,0.569,0.405c0.153-0.024,0.308-0.049,0.468-0.049c1.654,0,3,1.346,3,3 s-1.346,3-3,3h-7.5c-0.276,0-0.5,0.224-0.5,0.5s0.224,0.5,0.5,0.5h7.5c2.206,0,4-1.794,4-4s-1.794-4-4-4 c-0.059,0-0.116,0.002-0.174,0.006c-0.414-1.186-1.537-2.006-2.826-2.006c-0.349,0-0.689,0.061-1.011,0.18 c-0.165-2.333-2.115-4.18-4.489-4.18c-1.831,0-3.466,1.127-4.153,2.774c-0.68-0.499-1.502-0.774-2.347-0.774c-2.206,0-4,1.794-4,4 c0,0.048,0.001,0.095,0.004,0.142c-1.743,0.448-3.004,2.027-3.004,3.858C20.716,71.948,22.51,73.743,24.716,73.743z"/><path fill="#472b29" d="M30.216,72.743c0.159,0,0.841,0,1,0c0.276,0,0.5,0.224,0.5,0.5c0,0.276-0.224,0.5-0.5,0.5 c-0.159,0-0.841,0-1,0c-0.276,0-0.5-0.224-0.5-0.5C29.716,72.967,29.94,72.743,30.216,72.743z"/></g></svg>