<svg xmlns="http://www.w3.org/2000/svg"  viewBox="0 0 100 100" width="100px" height="100px"><g><path fill="#c7ede6" d="M86.212,57.157c1.135-2.155,1.785-4.605,1.785-7.21c0-6.621-4.159-12.257-10.001-14.478 c0-0.008,0.001-0.015,0.001-0.022c0-11.598-9.402-21-21-21c-9.784,0-17.981,6.701-20.313,15.757 c-1.476-0.485-3.048-0.757-4.687-0.757c-7.692,0-14.023,5.793-14.89,13.252c-5.204,1.1-9.11,5.716-9.11,11.248 c0,6.351,5.149,11.5,11.5,11.5c0.177,0,0.352-0.012,0.526-0.022c-0.004,0.175-0.026,0.346-0.026,0.522 c0,11.322,9.178,20.5,20.5,20.5c6.437,0,12.175-2.972,15.934-7.614c2.178,2.225,5.207,3.614,8.566,3.614 c4.65,0,8.674-2.65,10.666-6.518c1.052,0.334,2.171,0.518,3.334,0.518c6.075,0,11-4.925,11-11 C89.997,62.136,88.527,59.173,86.212,57.157z"/><path fill="#fdfcef" d="M64,37h-6.003c-2.485-0.053-4.5-2.068-4.5-4.553c0-2.333,1.782-4.229,4.055-4.455 c-0.022-0.181-0.055-0.358-0.055-0.545c0-2.485,2.015-4.5,4.5-4.5c1.438,0,2.703,0.686,3.527,1.736 c0.14-2.636,2.302-4.736,4.973-4.736c2.761,0,5,2.239,5,5c0,0.446-0.077,0.87-0.187,1.282c0.642-0.777,1.6-1.282,2.687-1.282 c1.781,0,3.234,1.335,3.455,3.055c0.181-0.022,0.358-0.055,0.545-0.055c2.485,0,4.5,2.015,4.5,4.5s-2.015,4.5-4.5,4.553h-9.5H67 v1h-3V37z"/><path fill="#472b29" d="M70.5,19c3.033,0,5.5,2.467,5.5,5.5c0,0.016,0,0.031,0,0.047C76.602,24.192,77.29,24,78,24 c1.831,0,3.411,1.261,3.858,3.005C81.905,27.002,81.952,27,82,27c3.099,0,5.549,2.834,4.893,6.047 C86.413,35.398,84.204,37,81.804,37l-14.679,0c-0.276,0-0.5-0.224-0.5-0.5s0.224-0.5,0.5-0.5l14.718,0 c1.92,0,3.687-1.282,4.071-3.163C86.439,30.267,84.479,28,82,28c-0.117,0-0.23,0.017-0.343,0.032l-0.141,0.019 c-0.021,0.003-0.041,0.004-0.062,0.004c-0.246,0-0.462-0.185-0.495-0.437C80.768,26.125,79.496,25,78,25 c-0.885,0-1.723,0.401-2.301,1.1c-0.098,0.118-0.241,0.182-0.386,0.182c-0.078,0-0.156-0.018-0.228-0.056 c-0.209-0.107-0.314-0.346-0.254-0.573c0.16-0.6,0.202-1.069,0.147-1.549c-0.24-2.127-1.959-3.909-4.092-4.088 c-2.551-0.215-4.725,1.728-4.859,4.246c-0.011,0.208-0.15,0.387-0.349,0.45c-0.05,0.016-0.101,0.024-0.152,0.024 c-0.15,0-0.296-0.069-0.392-0.192C64.362,23.563,63.221,23,62,23c-2.206,0-4,1.794-4,4c0,0.117,0.017,0.23,0.032,0.343 l0.019,0.141c0.016,0.134-0.022,0.268-0.106,0.373c-0.084,0.105-0.207,0.172-0.34,0.185c-2.352,0.234-4.042,2.429-3.504,4.865 C54.509,34.76,56.275,36,58.173,36l5.952,0c0.276,0,0.5,0.224,0.5,0.5s-0.224,0.5-0.5,0.5l-5.938,0 c-2.467,0-4.708-1.704-5.115-4.138c-0.462-2.763,1.344-5.22,3.931-5.74C57.001,27.082,57,27.041,57,27c0-2.757,2.243-5,5-5 c1.176,0,2.293,0.416,3.183,1.164C65.781,20.76,67.945,19,70.5,19L70.5,19z"/><path fill="#472b29" d="M71.997,26.447c1.403,0,2.609,0.999,2.913,2.341c0.367-0.222,0.786-0.341,1.212-0.341 c1.202,0,2.198,0.897,2.353,2.068c0.203-0.045,0.396-0.068,0.585-0.068c1.529,0,2.811,1.2,2.918,2.732 c0.009,0.138-0.094,0.257-0.232,0.267c-0.006,0-0.012,0-0.018,0c-0.13,0-0.24-0.101-0.249-0.232 c-0.089-1.271-1.151-2.268-2.419-2.268c-0.229,0-0.47,0.042-0.738,0.127c-0.022,0.007-0.045,0.01-0.067,0.01 c-0.055,0-0.11-0.02-0.156-0.054c-0.064-0.047-0.102-0.129-0.102-0.209c0-1.034-0.841-1.875-1.875-1.875 c-0.447,0-0.885,0.168-1.231,0.473c-0.047,0.041-0.106,0.063-0.165,0.063c-0.032,0-0.063-0.006-0.093-0.019 c-0.088-0.035-0.148-0.117-0.155-0.212c-0.102-1.292-1.191-2.305-2.479-2.305c-0.208,0-0.425,0.034-0.682,0.107 c-0.023,0.007-0.047,0.01-0.07,0.01c-0.109,0-0.207-0.073-0.239-0.182c-0.038-0.133,0.039-0.271,0.172-0.309 C71.48,26.487,71.741,26.447,71.997,26.447L71.997,26.447z"/><path fill="#fff" d="M14.402,49H4.497c-0.276,0-0.5-0.224-0.5-0.5s0.224-0.5,0.5-0.5h9.905c0.276,0,0.5,0.224,0.5,0.5 S14.679,49,14.402,49z"/><path fill="#fff" d="M17.497,49h-1c-0.276,0-0.5-0.224-0.5-0.5s0.224-0.5,0.5-0.5h1c0.276,0,0.5,0.224,0.5,0.5 S17.774,49,17.497,49z"/><path fill="#fff" d="M22.488,51h-8.991c-0.276,0-0.5-0.224-0.5-0.5s0.224-0.5,0.5-0.5h8.991c0.276,0,0.5,0.224,0.5,0.5 S22.764,51,22.488,51z"/><path fill="#fff" d="M11.497,51h-1c-0.276,0-0.5-0.224-0.5-0.5s0.224-0.5,0.5-0.5h1c0.276,0,0.5,0.224,0.5,0.5 S11.774,51,11.497,51z"/><path fill="#fff" d="M8.497,51h-2c-0.276,0-0.5-0.224-0.5-0.5s0.224-0.5,0.5-0.5h2c0.276,0,0.5,0.224,0.5,0.5 S8.774,51,8.497,51z"/><path fill="#fff" d="M14.497,53h-2c-0.276,0-0.5-0.224-0.5-0.5s0.224-0.5,0.5-0.5h2c0.276,0,0.5,0.224,0.5,0.5 S14.773,53,14.497,53z"/><path fill="#fff" d="M17.497,44c-0.177,0-0.823,0-1,0c-0.276,0-0.5,0.224-0.5,0.5c0,0.276,0.224,0.5,0.5,0.5 c0.177,0,0.823,0,1,0c0.276,0,0.5-0.224,0.5-0.5C17.997,44.224,17.773,44,17.497,44z"/><path fill="#fff" d="M17.497,46c-0.177,0-4.823,0-5,0c-0.276,0-0.5,0.224-0.5,0.5c0,0.276,0.224,0.5,0.5,0.5 c0.177,0,4.823,0,5,0c0.276,0,0.5-0.224,0.5-0.5C17.997,46.224,17.773,46,17.497,46z"/><path fill="#fff" d="M22.497,48c-0.177,0-2.823,0-3,0c-0.276,0-0.5,0.224-0.5,0.5c0,0.276,0.224,0.5,0.5,0.5 c0.177,0,2.823,0,3,0c0.276,0,0.5-0.224,0.5-0.5C22.997,48.224,22.773,48,22.497,48z"/><path fill="#fff" d="M88.497,66h-10c-0.276,0-0.5-0.224-0.5-0.5s0.224-0.5,0.5-0.5h10c0.276,0,0.5,0.224,0.5,0.5 S88.773,66,88.497,66z"/><path fill="#fff" d="M92.497,66h-2c-0.276,0-0.5-0.224-0.5-0.5s0.224-0.5,0.5-0.5h2c0.276,0,0.5,0.224,0.5,0.5 S92.773,66,92.497,66z"/><path fill="#fff" d="M97.497,68h-10c-0.276,0-0.5-0.224-0.5-0.5s0.224-0.5,0.5-0.5h10c0.276,0,0.5,0.224,0.5,0.5 S97.774,68,97.497,68z"/><path fill="#fff" d="M85.497,68h-1c-0.276,0-0.5-0.224-0.5-0.5s0.224-0.5,0.5-0.5h1c0.276,0,0.5,0.224,0.5,0.5 S85.773,68,85.497,68z"/><path fill="#fff" d="M82.372,68h-1.875c-0.276,0-0.5-0.224-0.5-0.5s0.224-0.5,0.5-0.5h1.875c0.276,0,0.5,0.224,0.5,0.5 S82.648,68,82.372,68z"/><path fill="#fff" d="M91.497,64h-5c-0.276,0-0.5-0.224-0.5-0.5s0.224-0.5,0.5-0.5h5c0.276,0,0.5,0.224,0.5,0.5 S91.774,64,91.497,64z"/><path fill="#fff" d="M88.497,70h-2c-0.276,0-0.5-0.224-0.5-0.5s0.224-0.5,0.5-0.5h2c0.276,0,0.5,0.224,0.5,0.5 S88.773,70,88.497,70z"/><g><path fill="#fedd32" d="M68.208,75H34.792C32.145,75,30,72.855,30,70.208V36.792C30,34.145,32.145,32,34.792,32h33.417 C70.855,32,73,34.145,73,36.792v33.417C73,72.855,70.855,75,68.208,75z"/></g><g><path fill="#870932" d="M63.74,52.154c0,0,5.751-0.217,6.727,5.534c0.977,5.751,0.76,15.625,0.76,15.625 s-2.496,1.953-5.642,1.953s-1.519-3.038-1.519-3.038L63.74,52.154z"/></g><g><path fill="#f11717" d="M63.503,58.084c0,0,4.014,0.056,6.049,2.037c0.154-3.253-0.36-5.322-1.221-5.877 c-0.86-0.555-5.304-0.942-5.304-0.942L63.503,58.084z"/></g><g><path fill="#472b29" d="M71.769,72.771l-1.845,1.411c0.342-1.455-0.138-13.276-0.853-17.923 c-0.455-2.955-6.065-2.7-6.12-2.696l-0.163-2.599c2.979-0.189,8.199,0.63,8.856,4.899c0.407,2.646,0.908,8.261,1.066,12.459 C72.795,70.572,71.948,72.009,71.769,72.771z"/></g><g><path fill="#f11717" d="M37.481,75.049c-1.194-9.657-0.621-23.558,1.628-28.646c2.062-4.666,8.898-8.247,16.493-6.944 c7.748,1.328,8.369,13.243,8.464,14.106c1.085,9.874-0.217,21.593-0.217,21.593"/></g><g><path fill="#870932" d="M59.995,42.714c0,0,3.558,19.965-2.016,26.15c-5.574,6.185-13.993,3.364-15.416,2.604 c-1.423-0.76-4.862-3.689-5.336-8.789c-1.067,5.425,0.356,12.478,0.356,12.478l26.445,0.217c0,0,1.542-19.097-0.949-26.91 C61.656,44.45,59.995,42.714,59.995,42.714z"/></g><g><path fill="#472b29" d="M65.338,75.325l-2.98-0.333c0.013-0.115,1.271-11.599,0.217-21.125l-0.022-0.246 c-0.297-3.427-1.593-11.502-7.202-12.457c-7.094-1.208-13.131,2.118-14.87,6.031c-2.025,4.554-2.745,17.742-1.511,27.67 l-2.977,0.37c-1.165-9.363-0.734-23.682,1.745-29.259c2.176-4.892,9.259-9.278,18.116-7.77c5.401,0.92,8.933,6.444,9.688,15.156 l0.016,0.173C66.647,63.401,65.393,74.843,65.338,75.325z"/></g><g><path fill="#235684" d="M40.627,46.946c0,0,6.293-1.302,11.068-0.217c4.774,1.085,4.991,7.596,3.472,10.308 c-1.519,2.713-4.557,4.774-9.983,4.449s-11.285-1.519-10.2-8.681C35.636,49.659,39,47.272,40.627,46.946z"/></g><g><path fill="#75daf3" d="M37.047,50.744c0,0-1.302,2.93,2.062,4.123s8.355,0.76,9.983,0.109 c1.628-0.651,2.496-1.953,2.496-3.255c0-1.302,0.217-3.038-4.015-3.798C43.34,47.163,39,47.597,37.047,50.744z"/></g><g><path fill="#472b29" d="M46.138,63.02c-0.395,0-0.801-0.012-1.222-0.037c-3.818-0.225-8.032-0.84-10.338-3.694 c-1.372-1.698-1.853-3.957-1.428-6.713c0.842-4.011,4.889-6.699,6.927-7.102c0.348-0.07,6.794-1.345,11.873-0.21 c2.168,0.485,3.81,1.861,4.747,3.98c1.313,2.965,0.855,6.61-0.24,8.534C55.068,60.218,52.16,63.02,46.138,63.02z M47.154,47.797 c-3.376,0-6.442,0.61-6.485,0.619c-0.003,0.001-0.007,0.001-0.01,0.002c-1.138,0.224-4.04,2.23-4.559,4.696 c-0.279,1.832-0.02,3.262,0.812,4.29c1.58,1.956,5.201,2.408,8.18,2.584c4.271,0.252,7.219-0.99,8.758-3.694 c0.728-1.277,0.974-3.871,0.104-5.836c-0.545-1.231-1.439-1.994-2.658-2.266C49.989,47.901,48.546,47.797,47.154,47.797z M40.37,46.946h0.01H40.37z"/></g><g><path fill="#fff" d="M40.085,51.178c0,0,0.76-0.651,2.279-0.977c1.519-0.326,3.581-0.434,4.666-0.109 c1.085,0.326,0.651,1.736-0.434,2.062c-1.085,0.326-5.1,0.543-5.968,0.543C39.759,52.697,39.542,51.72,40.085,51.178z"/></g><g><path fill="#472b29" d="M46.785,36.472h-2.757c-0.276,0-0.5-0.224-0.5-0.5s0.224-0.5,0.5-0.5h2.757 c0.276,0,0.5,0.224,0.5,0.5S47.062,36.472,46.785,36.472z"/></g><g><path fill="#472b29" d="M33,39.689c-0.276,0-0.5-0.224-0.5-0.5c0-2.049,1.667-3.717,3.717-3.717h5.055 c0.276,0,0.5,0.224,0.5,0.5s-0.224,0.5-0.5,0.5h-5.055c-1.498,0-2.717,1.219-2.717,2.717C33.5,39.465,33.276,39.689,33,39.689z"/></g><g><path fill="#472b29" d="M33,46.581c-0.276,0-0.5-0.224-0.5-0.5v-4.595c0-0.276,0.224-0.5,0.5-0.5s0.5,0.224,0.5,0.5v4.595 C33.5,46.358,33.276,46.581,33,46.581z"/></g><g><path fill="#472b29" d="M67.625,32.4c2.743,0,4.975,2.232,4.975,4.975v32.25c0,2.743-2.232,4.975-4.975,4.975h-32.25 c-2.743,0-4.975-2.232-4.975-4.975v-32.25c0-2.743,2.232-4.975,4.975-4.975H67.625 M67.625,31h-32.25 C31.854,31,29,33.854,29,37.375v32.25C29,73.146,31.854,76,35.375,76h32.25C71.146,76,74,73.146,74,69.625v-32.25 C74,33.854,71.146,31,67.625,31L67.625,31z"/></g><g><path fill="#fdfcef" d="M23,80h-3.003c-1.933-0.053-3.5-1.62-3.5-3.553c0-1.781,1.335-3.234,3.055-3.455 c-0.028-0.179-0.055-0.358-0.055-0.545c0-1.933,1.567-3.5,3.5-3.5c1.032,0,1.95,0.455,2.59,1.165 c0.384-1.808,1.987-3.165,3.91-3.165c2.209,0,4,1.791,4,4c0,0.191-0.03,0.374-0.056,0.558c0.428-0.344,0.965-0.558,1.556-0.558 c1.228,0,2.245,0.887,2.455,2.055c0.179-0.028,0.358-0.055,0.545-0.055c1.933,0,3.5,1.567,3.5,3.5s-1.567,3.5-3.5,3.553H30l0,0 H23L23,80z"/><path fill="#472b29" d="M21.747,75.447c0.138,0,0.25-0.112,0.25-0.25c0-1.223-0.995-2.218-2.218-2.218 c-0.034,0.009-0.737-0.001-1.244,0.136c-0.133,0.036-0.212,0.173-0.176,0.306c0.036,0.134,0.173,0.213,0.306,0.176 c0.444-0.12,1.1-0.12,1.113-0.118c0.948,0,1.719,0.771,1.719,1.718C21.497,75.335,21.609,75.447,21.747,75.447z"/><circle cx="28.5" cy="79.5" r=".5" fill="#472b29"/><path fill="#472b29" d="M16.165,77.157C16.67,78.889,18.369,80,20.173,80h3.324c0.276,0,0.5-0.224,0.5-0.5 s-0.224-0.5-0.5-0.5l-3.395,0c-1.243,0-2.435-0.701-2.886-1.859c-0.755-1.939,0.536-3.861,2.399-4.1 c0.134-0.018,0.255-0.088,0.336-0.196s0.115-0.244,0.094-0.377c-0.024-0.153-0.049-0.308-0.049-0.468c0-1.654,1.346-3,3-3 c0.85,0,1.638,0.355,2.219,1c0.125,0.139,0.321,0.198,0.5,0.148c0.182-0.049,0.321-0.195,0.36-0.379 C26.417,68.165,27.856,67,29.497,67c1.93,0,3.5,1.57,3.5,3.5c0,0.143-0.021,0.28-0.041,0.418 c-0.029,0.203,0.063,0.438,0.242,0.54c0.179,0.102,0.396,0.118,0.556-0.01C34.118,71.155,34.548,71,34.997,71 c0.966,0,1.792,0.691,1.963,1.644c0.048,0.267,0.296,0.446,0.569,0.405C37.682,73.025,37.837,73,37.997,73 c1.97,0,3.503,1.908,2.846,3.974C40.447,78.218,39.206,79,37.901,79l-7.404,0c-0.276,0-0.5,0.224-0.5,0.5s0.224,0.5,0.5,0.5 h7.343c1.92,0,3.687-1.282,4.071-3.163C42.436,74.267,40.476,72,37.997,72c-0.059,0-0.116,0.002-0.174,0.006 C37.409,70.82,36.286,70,34.997,70c-0.349,0-0.689,0.061-1.011,0.18C33.821,67.847,31.87,66,29.497,66 c-1.831,0-3.466,1.127-4.153,2.774C24.663,68.276,23.842,68,22.997,68c-2.206,0-4,1.794-4,4c0,0.048,0.001,0.095,0.004,0.142 C16.899,72.682,15.497,74.869,16.165,77.157z"/><path fill="#472b29" d="M25.497,79c0.159,0,0.841,0,1,0c0.276,0,0.5,0.224,0.5,0.5c0,0.276-0.224,0.5-0.5,0.5 c-0.159,0-0.841,0-1,0c-0.276,0-0.5-0.224-0.5-0.5C24.997,79.224,25.221,79,25.497,79z"/></g></g></svg>