<svg xmlns="http://www.w3.org/2000/svg"  viewBox="0 0 100 100" width="100px" height="100px"><path fill="#c7ede6" d="M86.715,56.71c1.135-2.155,1.785-4.605,1.785-7.21c0-6.621-4.159-12.257-10.001-14.478	c0-0.007,0.001-0.014,0.001-0.022c0-11.598-9.402-21-21-21c-9.784,0-17.981,6.701-20.313,15.757C35.711,29.272,34.138,29,32.5,29	c-7.692,0-14.023,5.793-14.89,13.252C12.406,43.353,8.5,47.969,8.5,53.5C8.5,59.851,13.649,65,20,65	c0.177,0,0.352-0.012,0.526-0.022C20.522,65.153,20.5,65.324,20.5,65.5C20.5,76.822,29.678,86,41,86	c6.437,0,12.175-2.972,15.934-7.614C59.112,80.611,62.14,82,65.5,82c4.65,0,8.674-2.65,10.666-6.518	C77.218,75.817,78.337,76,79.5,76c6.075,0,11-4.925,11-11C90.5,61.689,89.03,58.727,86.715,56.71z"/><path fill="#fdfcef" d="M69.625,53.5c0,0-3.64,0-6.125,0S59,51.485,59,49c0-2.333,1.782-4.229,4.055-4.455	C63.033,44.364,63,44.187,63,44c0-2.485,2.015-4.5,4.5-4.5c1.438,0,2.703,0.686,3.527,1.736C71.167,38.6,73.329,36.5,76,36.5	c2.761,0,5,2.239,5,5c0,0.446-0.077,0.87-0.187,1.282c0.642-0.777,1.6-1.282,2.687-1.282c1.781,0,3.234,1.335,3.455,3.055	c0.181-0.022,0.358-0.055,0.545-0.055c2.485,0,4.5,2.015,4.5,4.5s-2.015,4.5-4.5,4.5s-9.5,0-9.5,0h-5.375V54h-3V53.5z"/><path fill="#472b29" d="M76,36c3.033,0,5.5,2.467,5.5,5.5c0,0.016,0,0.031,0,0.047c0.602-0.355,1.29-0.547,2-0.547	c1.831,0,3.411,1.261,3.858,3.005C87.405,44.002,87.452,44,87.5,44c2.757,0,5,2.243,5,5s-2.243,5-5,5H72.625	c-0.276,0-0.5-0.224-0.5-0.5s0.224-0.5,0.5-0.5H87.5c2.206,0,4-1.794,4-4s-1.794-4-4-4c-0.117,0-0.23,0.017-0.343,0.032	l-0.141,0.019c-0.021,0.003-0.041,0.004-0.062,0.004c-0.246,0-0.462-0.185-0.495-0.437C86.268,43.125,84.996,42,83.5,42	c-0.885,0-1.723,0.401-2.301,1.1c-0.098,0.118-0.241,0.182-0.386,0.182c-0.078,0-0.156-0.018-0.228-0.056	c-0.209-0.107-0.314-0.346-0.254-0.573c0.115-0.435,0.169-0.801,0.169-1.153c0-2.481-2.019-4.5-4.5-4.5	c-2.381,0-4.347,1.872-4.474,4.263c-0.011,0.208-0.15,0.387-0.349,0.45c-0.05,0.016-0.101,0.024-0.152,0.024	c-0.15,0-0.296-0.069-0.392-0.192C69.862,40.563,68.721,40,67.5,40c-2.206,0-4,1.794-4,4c0,0.117,0.017,0.23,0.032,0.343	l0.019,0.141c0.016,0.134-0.022,0.268-0.106,0.373c-0.084,0.105-0.207,0.172-0.34,0.185C61.049,45.247,59.5,46.949,59.5,49	c0,2.206,1.794,4,4,4h6.125c0.276,0,0.5,0.224,0.5,0.5s-0.224,0.5-0.5,0.5H63.5c-2.757,0-5-2.243-5-5	c0-2.397,1.689-4.413,4.003-4.877C62.501,44.082,62.5,44.041,62.5,44c0-2.757,2.243-5,5-5c1.176,0,2.293,0.416,3.183,1.164	C71.281,37.76,73.445,36,76,36L76,36z"/><path fill="#472b29" d="M77.5,43c1.403,0,2.609,0.999,2.913,2.341C80.78,45.119,81.199,45,81.625,45	c1.202,0,2.198,0.897,2.353,2.068C84.181,47.022,84.374,47,84.563,47c1.529,0,2.811,1.2,2.918,2.732	C87.49,49.87,87.386,49.99,87.249,50c-0.006,0-0.012,0-0.018,0c-0.13,0-0.24-0.101-0.249-0.232	c-0.089-1.271-1.151-2.268-2.419-2.268c-0.229,0-0.47,0.042-0.738,0.127c-0.022,0.007-0.045,0.01-0.067,0.01	c-0.055,0-0.11-0.02-0.156-0.054c-0.064-0.046-0.102-0.128-0.102-0.208c0-1.034-0.841-1.875-1.875-1.875	c-0.447,0-0.885,0.168-1.231,0.473c-0.047,0.041-0.106,0.063-0.165,0.063c-0.032,0-0.063-0.006-0.093-0.019	c-0.088-0.035-0.148-0.117-0.155-0.212C79.877,44.512,78.788,43.5,77.5,43.5c-0.208,0-0.425,0.034-0.682,0.107	c-0.023,0.007-0.047,0.01-0.07,0.01c-0.109,0-0.207-0.073-0.239-0.182c-0.038-0.133,0.039-0.271,0.172-0.309	C76.983,43.04,77.244,43,77.5,43L77.5,43z"/><path fill="#472b29" d="M63.617,44.5c1.326,0,2.508,0.897,2.874,2.182c0.038,0.133-0.039,0.271-0.172,0.309	C66.295,46.997,66.272,47,66.25,47c-0.109,0-0.209-0.072-0.24-0.182C65.705,45.748,64.721,45,63.617,45	c-0.117,0-0.23,0.014-0.342,0.029c-0.012,0.002-0.023,0.003-0.035,0.003c-0.121,0-0.229-0.092-0.246-0.217	c-0.019-0.137,0.077-0.263,0.214-0.281C63.342,44.516,63.478,44.5,63.617,44.5L63.617,44.5z"/><path fill="#fff" d="M14.905,51H5c-0.276,0-0.5-0.224-0.5-0.5S4.724,50,5,50h9.905c0.276,0,0.5,0.224,0.5,0.5	S15.182,51,14.905,51z"/><path fill="#fff" d="M18,51h-1c-0.276,0-0.5-0.224-0.5-0.5S16.724,50,17,50h1c0.276,0,0.5,0.224,0.5,0.5S18.277,51,18,51z"/><path fill="#fff" d="M22.991,53H14c-0.276,0-0.5-0.224-0.5-0.5S13.724,52,14,52h8.991c0.276,0,0.5,0.224,0.5,0.5	S23.267,53,22.991,53z"/><path fill="#fff" d="M12,53h-1c-0.276,0-0.5-0.224-0.5-0.5S10.724,52,11,52h1c0.276,0,0.5,0.224,0.5,0.5S12.277,53,12,53z"/><path fill="#fff" d="M9,53H7c-0.276,0-0.5-0.224-0.5-0.5S6.724,52,7,52h2c0.276,0,0.5,0.224,0.5,0.5S9.277,53,9,53z"/><path fill="#fff" d="M15,55h-2c-0.276,0-0.5-0.224-0.5-0.5S12.724,54,13,54h2c0.276,0,0.5,0.224,0.5,0.5S15.276,55,15,55z"/><path fill="#fff" d="M18,46c-0.177,0-0.823,0-1,0c-0.276,0-0.5,0.224-0.5,0.5S16.724,47,17,47c0.177,0,0.823,0,1,0	c0.276,0,0.5-0.224,0.5-0.5S18.276,46,18,46z"/><path fill="#fff" d="M18,48c-0.177,0-4.823,0-5,0c-0.276,0-0.5,0.224-0.5,0.5S12.724,49,13,49c0.177,0,4.823,0,5,0	c0.276,0,0.5-0.224,0.5-0.5S18.276,48,18,48z"/><path fill="#fff" d="M23,50c-0.177,0-2.823,0-3,0c-0.276,0-0.5,0.224-0.5,0.5S19.724,51,20,51c0.177,0,2.823,0,3,0	c0.276,0,0.5-0.224,0.5-0.5S23.276,50,23,50z"/><path fill="#fff" d="M88,69H78c-0.276,0-0.5-0.224-0.5-0.5S77.724,68,78,68h10c0.276,0,0.5,0.224,0.5,0.5S88.276,69,88,69	z"/><path fill="#fff" d="M92,69h-2c-0.276,0-0.5-0.224-0.5-0.5S89.724,68,90,68h2c0.276,0,0.5,0.224,0.5,0.5S92.276,69,92,69z"/><path fill="#fff" d="M97,71H87c-0.276,0-0.5-0.224-0.5-0.5S86.724,70,87,70h10c0.276,0,0.5,0.224,0.5,0.5S97.277,71,97,71	z"/><path fill="#fff" d="M85,71h-1c-0.276,0-0.5-0.224-0.5-0.5S83.724,70,84,70h1c0.276,0,0.5,0.224,0.5,0.5S85.276,71,85,71z"/><path fill="#fff" d="M81.875,71H80c-0.276,0-0.5-0.224-0.5-0.5S79.724,70,80,70h1.875c0.276,0,0.5,0.224,0.5,0.5	S82.151,71,81.875,71z"/><path fill="#fff" d="M91,67h-5c-0.276,0-0.5-0.224-0.5-0.5S85.724,66,86,66h5c0.276,0,0.5,0.224,0.5,0.5S91.277,67,91,67z"/><path fill="#fff" d="M88,73h-2c-0.276,0-0.5-0.224-0.5-0.5S85.724,72,86,72h2c0.276,0,0.5,0.224,0.5,0.5S88.276,73,88,73z"/><path fill="#fbcd59" d="M29.475,64.011V35.989c0-3.866,3.134-7,7-7h28.023c3.866,0,7,3.134,7,7v28.023c0,3.866-3.134,7-7,7	H36.475C32.609,71.011,29.475,67.877,29.475,64.011z"/><path fill="#472b29" d="M64.5,32h-17c-0.276,0-0.5-0.224-0.5-0.5s0.224-0.5,0.5-0.5h17c0.276,0,0.5,0.224,0.5,0.5	S64.776,32,64.5,32z"/><path fill="#472b29" d="M32,47.5c-0.276,0-0.5-0.224-0.5-0.5V36c0-2.757,2.243-5,5-5h8c0.276,0,0.5,0.224,0.5,0.5	S44.776,32,44.5,32h-8c-2.206,0-4,1.794-4,4v11C32.5,47.276,32.276,47.5,32,47.5z"/><path fill="#472b29" d="M61.5,69h-25c-2.757,0-5-2.243-5-5V50c0-0.276,0.224-0.5,0.5-0.5s0.5,0.224,0.5,0.5v14	c0,2.206,1.794,4,4,4h25c0.276,0,0.5,0.224,0.5,0.5S61.776,69,61.5,69z"/><path fill="#472b29" d="M69,44.5c-0.276,0-0.5-0.224-0.5-0.5v-3c0-0.276,0.224-0.5,0.5-0.5s0.5,0.224,0.5,0.5v3	C69.5,44.276,69.276,44.5,69,44.5z"/><path fill="#472b29" d="M69,38.5c-0.276,0-0.5-0.224-0.5-0.5v-2c0-2.206-1.794-4-4-4c-0.276,0-0.5-0.224-0.5-0.5	s0.224-0.5,0.5-0.5c2.757,0,5,2.243,5,5v2C69.5,38.276,69.276,38.5,69,38.5z"/><line x1="41.5" x2="71.5" y1="61.5" y2="61.5" fill="none" stroke="#fff" stroke-linecap="round" stroke-miterlimit="10"/><path fill="#472b29" d="M64.5,29.4c3.639,0,6.6,2.961,6.6,6.6v28c0,3.639-2.961,6.6-6.6,6.6h-28c-3.639,0-6.6-2.961-6.6-6.6	V36c0-3.639,2.961-6.6,6.6-6.6H64.5 M64.5,28h-28c-4.418,0-8,3.582-8,8v28c0,4.418,3.582,8,8,8h28c4.418,0,8-3.582,8-8V36	C72.5,31.582,68.918,28,64.5,28L64.5,28z"/><path fill="#fdfcef" d="M35,75.5c0,0,1.567,0,3.5,0S42,73.933,42,72c0-1.781-1.335-3.234-3.055-3.455 C38.973,68.366,39,68.187,39,68c0-1.933-1.567-3.5-3.5-3.5c-1.032,0-1.95,0.455-2.59,1.165C32.526,63.857,30.923,62.5,29,62.5 c-2.209,0-4,1.791-4,4c0,0.191,0.03,0.374,0.056,0.558C24.628,66.714,24.092,66.5,23.5,66.5c-1.228,0-2.245,0.887-2.455,2.055 C20.866,68.527,20.687,68.5,20.5,68.5c-1.933,0-3.5,1.567-3.5,3.5s1.567,3.5,3.5,3.5s7.5,0,7.5,0V76h7V75.5z"/><path fill="#472b29" d="M38.5,76H35c-0.276,0-0.5-0.224-0.5-0.5S34.724,75,35,75h3.5c1.654,0,3-1.346,3-3 c0-1.496-1.125-2.768-2.618-2.959c-0.134-0.018-0.255-0.088-0.336-0.196s-0.115-0.244-0.094-0.377 C38.475,68.314,38.5,68.16,38.5,68c0-1.654-1.346-3-3-3c-0.85,0-1.638,0.355-2.219,1c-0.125,0.139-0.321,0.198-0.5,0.148 c-0.182-0.049-0.321-0.195-0.36-0.379C32.08,64.165,30.641,63,29,63c-1.93,0-3.5,1.57-3.5,3.5c0,0.143,0.021,0.28,0.041,0.418 c0.029,0.203-0.063,0.438-0.242,0.54s-0.396,0.118-0.556-0.01C24.378,67.155,23.949,67,23.5,67c-0.966,0-1.792,0.691-1.963,1.644 c-0.048,0.267-0.296,0.446-0.569,0.405C20.814,69.025,20.66,69,20.5,69c-1.654,0-3,1.346-3,3s1.346,3,3,3H28 c0.276,0,0.5,0.224,0.5,0.5S28.276,76,28,76h-7.5c-2.206,0-4-1.794-4-4s1.794-4,4-4c0.059,0,0.116,0.002,0.174,0.006 C21.088,66.82,22.211,66,23.5,66c0.349,0,0.689,0.061,1.011,0.18C24.676,63.847,26.626,62,29,62c1.831,0,3.466,1.127,4.153,2.774 C33.833,64.276,34.655,64,35.5,64c2.206,0,4,1.794,4,4c0,0.048-0.001,0.095-0.004,0.142C41.239,68.59,42.5,70.169,42.5,72 C42.5,74.206,40.706,76,38.5,76z"/><path fill="#472b29" d="M36.75,71c-0.138,0-0.25-0.112-0.25-0.25c0-1.223,0.995-2.218,2.218-2.218 c0.034,0.009,0.737-0.001,1.244,0.136c0.133,0.036,0.212,0.173,0.176,0.306c-0.036,0.134-0.173,0.213-0.306,0.176 c-0.444-0.12-1.1-0.12-1.113-0.118c-0.948,0-1.719,0.771-1.719,1.718C37,70.888,36.888,71,36.75,71z"/><path fill="#472b29" d="M33,75c-0.159,0-0.841,0-1,0c-0.276,0-0.5,0.224-0.5,0.5S31.724,76,32,76c0.159,0,0.841,0,1,0 c0.276,0,0.5-0.224,0.5-0.5S33.276,75,33,75z"/><circle cx="30" cy="75.5" r=".5" fill="#472b29"/><g><path fill="#472b29" d="M69.5,58.5V47c0-0.276-0.224-0.5-0.5-0.5s-0.5,0.224-0.5,0.5v11.5H69.5z"/><path fill="#472b29" d="M68.471,64.482C68.232,66.462,66.543,68,64.5,68c-0.276,0-0.5,0.224-0.5,0.5s0.224,0.5,0.5,0.5 c2.598,0,4.739-1.991,4.978-4.528C69.493,64.317,68.49,64.324,68.471,64.482z"/></g><circle cx="69" cy="58.5" r=".5" fill="#472b29"/><path fill="#472b29" d="M69.471,64.492c0,0.276-0.224,0.5-0.5,0.5c-0.276,0-0.5-0.224-0.5-0.5c0-0.009,0-0.018,0.001-0.027	c0.014-0.263,0.232-0.473,0.499-0.473c0.273,0,0.495,0.219,0.5,0.49C69.471,64.485,69.471,64.488,69.471,64.492z"/><g><path fill="#fff" d="M60.816,40.402l2.575-2.763c0.611-0.562,0.652-1.512,0.091-2.125 c-0.56-0.611-1.508-0.654-2.121-0.097l-2.685,2.846L60.816,40.402z"/><path fill="#fff" d="M42.403,55.817l-1.309,2.181c-0.339,0.565,0.28,1.219,0.863,0.911l2.316-1.223L42.403,55.817z"/><polygon fill="#fff" points="57.305,39.719 43.631,54.217 45.862,56.448 59.452,41.866"/></g></svg>