<svg xmlns="http://www.w3.org/2000/svg"  viewBox="0 0 100 100" width="100px" height="100px" baseProfile="basic"><path fill="#c7ede6" d="M87.215,56.71C88.35,54.555,89,52.105,89,49.5c0-6.621-4.159-12.257-10.001-14.478	C78.999,35.015,79,35.008,79,35c0-11.598-9.402-21-21-21c-9.784,0-17.981,6.701-20.313,15.757C36.211,29.272,34.638,29,33,29	c-7.692,0-14.023,5.793-14.89,13.252C12.906,43.353,9,47.969,9,53.5C9,59.851,14.149,65,20.5,65c0.177,0,0.352-0.012,0.526-0.022	C21.022,65.153,21,65.324,21,65.5C21,76.822,30.178,86,41.5,86c6.437,0,12.175-2.972,15.934-7.614C59.612,80.611,62.64,82,66,82	c4.65,0,8.674-2.65,10.666-6.518C77.718,75.817,78.837,76,80,76c6.075,0,11-4.925,11-11C91,61.689,89.53,58.727,87.215,56.71z"/><path fill="#fdfcef" d="M72.5,55.5V56h3v-0.5c0,0,4.242,0,5.5,0c2.485,0,4.5-2.015,4.5-4.5c0-2.333-1.782-4.229-4.055-4.455 C81.467,46.364,81.5,46.187,81.5,46c0-2.485-2.015-4.5-4.5-4.5c-1.438,0-2.703,0.686-3.527,1.736 C73.333,40.6,71.171,38.5,68.5,38.5c-2.761,0-5,2.239-5,5c0,0.446,0.077,0.87,0.187,1.282C63.045,44.005,62.086,43.5,61,43.5 c-1.781,0-3.234,1.335-3.455,3.055C57.364,46.533,57.187,46.5,57,46.5c-2.485,0-4.5,2.015-4.5,4.5s2.015,4.5,4.5,4.5s9.5,0,9.5,0 H72.5z"/><path fill="#472b29" d="M68.5,38c-3.033,0-5.5,2.467-5.5,5.5c0,0.016,0,0.031,0,0.047C62.398,43.192,61.71,43,61,43 c-1.831,0-3.411,1.261-3.858,3.005C57.095,46.002,57.048,46,57,46c-2.757,0-5,2.243-5,5s2.243,5,5,5h15.5 c0.276,0,0.5-0.224,0.5-0.5S72.776,55,72.5,55H57c-2.206,0-4-1.794-4-4s1.794-4,4-4c0.117,0,0.23,0.017,0.343,0.032l0.141,0.019 c0.021,0.003,0.041,0.004,0.062,0.004c0.246,0,0.462-0.185,0.495-0.437C58.232,45.125,59.504,44,61,44 c0.885,0,1.723,0.401,2.301,1.1c0.098,0.118,0.241,0.182,0.386,0.182c0.078,0,0.156-0.018,0.228-0.056 c0.209-0.107,0.314-0.346,0.254-0.573C64.054,44.218,64,43.852,64,43.5c0-2.481,2.019-4.5,4.5-4.5c2.381,0,4.347,1.872,4.474,4.263 c0.011,0.208,0.15,0.387,0.349,0.45c0.05,0.016,0.101,0.024,0.152,0.024c0.15,0,0.296-0.069,0.392-0.192 C74.638,42.563,75.779,42,77,42c2.206,0,4,1.794,4,4c0,0.117-0.017,0.23-0.032,0.343l-0.019,0.141 c-0.016,0.134,0.022,0.268,0.106,0.373c0.084,0.105,0.207,0.172,0.34,0.185C83.451,47.247,85,48.949,85,51c0,2.206-1.794,4-4,4 h-4.5c-0.276,0-0.5,0.224-0.5,0.5s0.224,0.5,0.5,0.5H81c2.757,0,5-2.243,5-5c0-2.397-1.689-4.413-4.003-4.877 C81.999,46.082,82,46.041,82,46c0-2.757-2.243-5-5-5c-1.176,0-2.293,0.416-3.183,1.164C73.219,39.76,71.055,38,68.5,38L68.5,38z"/><path fill="#472b29" d="M67,45c-1.403,0-2.609,0.999-2.913,2.341C63.72,47.119,63.301,47,62.875,47 c-1.202,0-2.198,0.897-2.353,2.068C60.319,49.022,60.126,49,59.937,49c-1.529,0-2.811,1.2-2.918,2.732 C57.01,51.87,57.114,51.99,57.251,52c0.006,0,0.012,0,0.018,0c0.13,0,0.24-0.101,0.249-0.232c0.089-1.271,1.151-2.268,2.419-2.268 c0.229,0,0.47,0.042,0.738,0.127c0.022,0.007,0.045,0.01,0.067,0.01c0.055,0,0.11-0.02,0.156-0.054 C60.962,49.537,61,49.455,61,49.375c0-1.034,0.841-1.875,1.875-1.875c0.447,0,0.885,0.168,1.231,0.473 c0.047,0.041,0.106,0.063,0.165,0.063c0.032,0,0.063-0.006,0.093-0.019c0.088-0.035,0.148-0.117,0.155-0.212 C64.623,46.512,65.712,45.5,67,45.5c0.208,0,0.425,0.034,0.682,0.107c0.023,0.007,0.047,0.01,0.07,0.01 c0.109,0,0.207-0.073,0.239-0.182c0.038-0.133-0.039-0.271-0.172-0.309C67.517,45.04,67.256,45,67,45L67,45z"/><path fill="#472b29" d="M80.883,46.5c-1.326,0-2.508,0.897-2.874,2.182c-0.038,0.133,0.039,0.271,0.172,0.309 C78.205,48.997,78.228,49,78.25,49c0.109,0,0.209-0.072,0.24-0.182C78.795,47.748,79.779,47,80.883,47 c0.117,0,0.23,0.014,0.342,0.029c0.012,0.002,0.023,0.003,0.035,0.003c0.121,0,0.229-0.092,0.246-0.217 c0.019-0.137-0.077-0.263-0.214-0.281C81.158,46.516,81.022,46.5,80.883,46.5L80.883,46.5z"/><path fill="#edece6" d="M74.177,41.083c0,0-3.838-2.117-6.991-5.27c-3.153-3.152-5.27-6.991-5.27-6.991 S57.458,29.937,53,29.937s-8.917-1.115-8.917-1.115s-2.117,3.838-5.27,6.991c-3.153,3.153-6.991,5.27-6.991,5.27 s1.115,4.458,1.115,8.917s-1.115,8.917-1.115,8.917s3.838,2.117,6.991,5.27c3.153,3.153,5.27,6.991,5.27,6.991 s4.458-1.115,8.917-1.115s8.917,1.115,8.917,1.115s2.117-3.838,5.27-6.991c3.153-3.153,6.991-5.27,6.991-5.27 S73.063,54.458,73.063,50S74.177,41.083,74.177,41.083z"/><path fill="#bf1734" stroke="#bf1734" stroke-linecap="round" stroke-linejoin="round" stroke-miterlimit="10" stroke-width=".5" d="M61.914,28.823L53,50l-8.914-21.177c0,0,4.457,1.117,8.914,1.117S61.914,28.823,61.914,28.823z"/><path fill="#bf1734" stroke="#bf1734" stroke-linecap="round" stroke-linejoin="round" stroke-miterlimit="10" stroke-width=".5" d="M31.823,58.914c0,0,1.117-4.457,1.117-8.914s-1.117-8.914-1.117-8.914L53,50L31.823,58.914z"/><path fill="#bf1734" stroke="#bf1734" stroke-linecap="round" stroke-linejoin="round" stroke-miterlimit="10" stroke-width=".5" d="M73.061,50c0,4.457,1.117,8.914,1.117,8.914L53,50l21.177-8.914C74.177,41.086,73.061,45.543,73.061,50z"/><path fill="#bf1734" stroke="#bf1734" stroke-linecap="round" stroke-linejoin="round" stroke-miterlimit="10" stroke-width=".5" d="M61.914,71.177c0,0-4.457-1.117-8.914-1.117s-8.914,1.117-8.914,1.117L53,50L61.914,71.177z"/><g><path fill="#472b29" d="M74.178,59.167c-0.032,0-0.065-0.006-0.097-0.02L44.378,46.641c-0.128-0.054-0.188-0.2-0.134-0.327 c0.053-0.127,0.201-0.19,0.327-0.134l29.703,12.507c0.128,0.054,0.188,0.2,0.134,0.327C74.368,59.109,74.275,59.167,74.178,59.167 z"/><path fill="#472b29" d="M41.539,45.424c-0.032,0-0.065-0.006-0.097-0.02l-2.885-1.214c-0.128-0.054-0.188-0.2-0.134-0.327 c0.053-0.128,0.2-0.189,0.327-0.134l2.885,1.214c0.128,0.054,0.188,0.2,0.134,0.327C41.729,45.366,41.637,45.424,41.539,45.424z"/><path fill="#472b29" d="M37.05,43.534c-0.032,0-0.065-0.006-0.097-0.02l-5.228-2.201c-0.128-0.054-0.188-0.2-0.134-0.327 c0.053-0.128,0.201-0.19,0.327-0.134l5.228,2.201c0.128,0.054,0.188,0.2,0.134,0.327C37.24,43.477,37.147,43.534,37.05,43.534z"/><path fill="#472b29" d="M44.083,71.428c-0.032,0-0.065-0.006-0.097-0.02c-0.128-0.054-0.188-0.2-0.134-0.327l11.526-27.375 c0.053-0.128,0.201-0.19,0.327-0.134c0.128,0.054,0.188,0.2,0.134,0.327L44.313,71.274C44.273,71.37,44.181,71.428,44.083,71.428z"/><path fill="#472b29" d="M56.484,41.975c-0.032,0-0.065-0.006-0.097-0.02c-0.128-0.054-0.188-0.2-0.134-0.327l5.433-12.902 c0.053-0.127,0.2-0.189,0.327-0.134c0.128,0.054,0.188,0.2,0.134,0.327l-5.433,12.902C56.675,41.917,56.582,41.975,56.484,41.975z"/><path fill="#472b29" d="M70.072,43.062c-0.098,0-0.19-0.058-0.23-0.153c-0.054-0.127,0.006-0.273,0.134-0.327l4.105-1.729 c0.126-0.056,0.274,0.007,0.327,0.134c0.054,0.127-0.006,0.273-0.134,0.327l-4.105,1.729 C70.138,43.056,70.104,43.062,70.072,43.062z"/><path fill="#472b29" d="M42.979,54.47c-0.098,0-0.19-0.058-0.23-0.153c-0.054-0.127,0.006-0.273,0.134-0.327l25.193-10.607 c0.126-0.054,0.274,0.007,0.327,0.134c0.054,0.127-0.006,0.273-0.134,0.327L43.075,54.45C43.044,54.464,43.011,54.47,42.979,54.47 z"/><path fill="#472b29" d="M31.822,59.167c-0.098,0-0.19-0.058-0.23-0.153c-0.054-0.127,0.006-0.273,0.134-0.327l9.345-3.935 c0.127-0.055,0.274,0.007,0.327,0.134c0.054,0.127-0.006,0.273-0.134,0.327l-9.345,3.935 C31.888,59.161,31.854,59.167,31.822,59.167z"/><path fill="#472b29" d="M61.917,71.428c-0.098,0-0.19-0.058-0.23-0.153l-2.469-5.863c-0.054-0.127,0.006-0.273,0.134-0.327 c0.126-0.054,0.273,0.007,0.327,0.134l2.469,5.863c0.054,0.127-0.006,0.273-0.134,0.327 C61.982,71.422,61.949,71.428,61.917,71.428z"/><path fill="#472b29" d="M58.485,63.278c-0.098,0-0.19-0.058-0.23-0.153L43.853,28.919 c-0.054-0.127,0.006-0.273,0.134-0.327c0.127-0.055,0.273,0.007,0.327,0.134l14.402,34.206c0.054,0.127-0.006,0.273-0.134,0.327 C58.551,63.272,58.518,63.278,58.485,63.278z"/><path fill="#472b29" d="M61.917,71.878c-0.057,0-0.113-0.007-0.17-0.021c-0.044-0.011-4.432-1.094-8.747-1.094 s-8.703,1.083-8.747,1.094c-0.308,0.079-0.629-0.062-0.783-0.341c-0.021-0.037-2.11-3.793-5.151-6.834s-6.797-5.131-6.834-5.151 c-0.278-0.154-0.418-0.476-0.341-0.783c0.011-0.044,1.094-4.432,1.094-8.747s-1.083-8.703-1.094-8.747 c-0.077-0.308,0.063-0.629,0.341-0.783c0.037-0.021,3.793-2.11,6.834-5.151s5.131-6.797,5.151-6.834 c0.154-0.279,0.476-0.422,0.783-0.341c0.044,0.011,4.432,1.094,8.747,1.094s8.703-1.083,8.747-1.094 c0.306-0.081,0.628,0.062,0.783,0.341c0.021,0.037,2.11,3.793,5.151,6.834s6.797,5.131,6.834,5.151 c0.278,0.154,0.418,0.476,0.341,0.783c-0.011,0.044-1.094,4.432-1.094,8.747s1.083,8.703,1.094,8.747 c0.077,0.308-0.063,0.629-0.341,0.783c-0.037,0.021-3.793,2.11-6.834,5.151s-5.131,6.797-5.151,6.834 C62.404,71.743,62.167,71.878,61.917,71.878z M53,69.362c3.655,0,7.256,0.722,8.57,1.016c0.67-1.13,2.545-4.109,5.121-6.687 c2.577-2.576,5.557-4.451,6.687-5.121c-0.294-1.314-1.016-4.915-1.016-8.57s0.722-7.256,1.016-8.57 c-1.13-0.67-4.109-2.545-6.687-5.121c-2.576-2.577-4.451-5.557-5.121-6.687c-1.314,0.294-4.915,1.016-8.57,1.016 s-7.256-0.722-8.57-1.016c-0.67,1.13-2.545,4.109-5.121,6.687c-2.577,2.576-5.557,4.451-6.687,5.121 c0.294,1.314,1.016,4.915,1.016,8.57s-0.722,7.256-1.016,8.57c1.13,0.67,4.109,2.545,6.687,5.121 c2.576,2.577,4.451,5.557,5.121,6.687C45.744,70.084,49.345,69.362,53,69.362z"/></g><g><path fill="#fff" d="M15.5,51h-10C5.224,51,5,50.776,5,50.5S5.224,50,5.5,50h10c0.276,0,0.5,0.224,0.5,0.5 S15.777,51,15.5,51z"/><path fill="#fff" d="M18.5,51h-1c-0.276,0-0.5-0.224-0.5-0.5s0.224-0.5,0.5-0.5h1c0.276,0,0.5,0.224,0.5,0.5 S18.777,51,18.5,51z"/><path fill="#fff" d="M23.491,53H14.5c-0.276,0-0.5-0.224-0.5-0.5s0.224-0.5,0.5-0.5h8.991c0.276,0,0.5,0.224,0.5,0.5 S23.767,53,23.491,53z"/><path fill="#fff" d="M12.5,53h-1c-0.276,0-0.5-0.224-0.5-0.5s0.224-0.5,0.5-0.5h1c0.276,0,0.5,0.224,0.5,0.5 S12.777,53,12.5,53z"/><path fill="#fff" d="M9.5,53h-2C7.224,53,7,52.776,7,52.5S7.224,52,7.5,52h2c0.276,0,0.5,0.224,0.5,0.5S9.777,53,9.5,53z"/><path fill="#fff" d="M15.5,55h-2c-0.276,0-0.5-0.224-0.5-0.5s0.224-0.5,0.5-0.5h2c0.276,0,0.5,0.224,0.5,0.5 S15.776,55,15.5,55z"/><path fill="#fff" d="M18.5,46c-0.177,0-0.823,0-1,0c-0.276,0-0.5,0.224-0.5,0.5c0,0.276,0.224,0.5,0.5,0.5 c0.177,0,0.823,0,1,0c0.276,0,0.5-0.224,0.5-0.5C19,46.224,18.776,46,18.5,46z"/><path fill="#fff" d="M18.5,48c-0.177,0-4.823,0-5,0c-0.276,0-0.5,0.224-0.5,0.5c0,0.276,0.224,0.5,0.5,0.5 c0.177,0,4.823,0,5,0c0.276,0,0.5-0.224,0.5-0.5C19,48.224,18.776,48,18.5,48z"/><path fill="#fff" d="M23.5,50c-0.177,0-2.823,0-3,0c-0.276,0-0.5,0.224-0.5,0.5c0,0.276,0.224,0.5,0.5,0.5 c0.177,0,2.823,0,3,0c0.276,0,0.5-0.224,0.5-0.5C24,50.224,23.776,50,23.5,50z"/></g><g><path fill="#fff" d="M72.5,24h-10c-0.276,0-0.5-0.224-0.5-0.5s0.224-0.5,0.5-0.5h10c0.276,0,0.5,0.224,0.5,0.5 S72.776,24,72.5,24z"/><path fill="#fff" d="M76.5,24h-2c-0.276,0-0.5-0.224-0.5-0.5s0.224-0.5,0.5-0.5h2c0.276,0,0.5,0.224,0.5,0.5 S76.776,24,76.5,24z"/><path fill="#fff" d="M81.5,26h-10c-0.276,0-0.5-0.224-0.5-0.5s0.224-0.5,0.5-0.5h10c0.276,0,0.5,0.224,0.5,0.5 S81.777,26,81.5,26z"/><path fill="#fff" d="M69.5,26h-1c-0.276,0-0.5-0.224-0.5-0.5s0.224-0.5,0.5-0.5h1c0.276,0,0.5,0.224,0.5,0.5 S69.776,26,69.5,26z"/><path fill="#fff" d="M66.47,26H64.5c-0.276,0-0.5-0.224-0.5-0.5s0.224-0.5,0.5-0.5h1.97c0.276,0,0.5,0.224,0.5,0.5 S66.746,26,66.47,26z"/><path fill="#fff" d="M75.5,22h-5c-0.276,0-0.5-0.224-0.5-0.5s0.224-0.5,0.5-0.5h5c0.276,0,0.5,0.224,0.5,0.5 S75.777,22,75.5,22z"/><path fill="#fff" d="M72.5,28h-2c-0.276,0-0.5-0.224-0.5-0.5s0.224-0.5,0.5-0.5h2c0.276,0,0.5,0.224,0.5,0.5 S72.776,28,72.5,28z"/></g><g><path fill="#fdfcef" d="M29.25,73.375c0,0-1.567,0-3.5,0s-3.5-1.567-3.5-3.5c0-1.781,1.335-3.234,3.055-3.455 c-0.028-0.179-0.055-0.358-0.055-0.545c0-1.933,1.567-3.5,3.5-3.5c1.032,0,1.95,0.455,2.59,1.165 c0.384-1.808,1.987-3.165,3.91-3.165c2.209,0,4,1.791,4,4c0,0.191-0.03,0.374-0.056,0.558c0.428-0.344,0.965-0.558,1.556-0.558 c1.228,0,2.245,0.887,2.455,2.055c0.179-0.028,0.358-0.055,0.545-0.055c1.933,0,3.5,1.567,3.5,3.5s-1.567,3.5-3.5,3.5s-7.5,0-7.5,0 v0.5h-7V73.375z"/><path fill="#472b29" d="M27.5,68.875c0.138,0,0.25-0.112,0.25-0.25c0-1.223-0.995-2.218-2.218-2.218 c-0.034,0.009-0.737-0.001-1.244,0.136c-0.133,0.036-0.212,0.173-0.176,0.306c0.036,0.134,0.173,0.213,0.306,0.176 c0.444-0.12,1.1-0.12,1.113-0.118c0.948,0,1.719,0.771,1.719,1.718C27.25,68.763,27.362,68.875,27.5,68.875z"/><circle cx="34.25" cy="73.375" r=".5" fill="#472b29"/><path fill="#472b29" d="M25.75,73.875h3.5c0.276,0,0.5-0.224,0.5-0.5s-0.224-0.5-0.5-0.5h-3.5c-1.654,0-3-1.346-3-3 c0-1.496,1.125-2.768,2.618-2.959c0.134-0.018,0.255-0.088,0.336-0.196s0.115-0.244,0.094-0.377 c-0.024-0.153-0.049-0.308-0.049-0.468c0-1.654,1.346-3,3-3c0.85,0,1.638,0.355,2.219,1c0.125,0.139,0.321,0.198,0.5,0.148 c0.182-0.049,0.321-0.195,0.36-0.379c0.341-1.604,1.779-2.769,3.42-2.769c1.93,0,3.5,1.57,3.5,3.5c0,0.143-0.021,0.28-0.041,0.418 c-0.029,0.203,0.063,0.438,0.242,0.54c0.179,0.102,0.396,0.118,0.556-0.01c0.365-0.293,0.794-0.448,1.243-0.448 c0.966,0,1.792,0.691,1.963,1.644c0.048,0.267,0.296,0.446,0.569,0.405c0.153-0.024,0.308-0.049,0.468-0.049c1.654,0,3,1.346,3,3 s-1.346,3-3,3h-7.5c-0.276,0-0.5,0.224-0.5,0.5s0.224,0.5,0.5,0.5h7.5c2.206,0,4-1.794,4-4s-1.794-4-4-4 c-0.059,0-0.116,0.002-0.174,0.006c-0.414-1.186-1.537-2.006-2.826-2.006c-0.349,0-0.689,0.061-1.011,0.18 c-0.165-2.333-2.115-4.18-4.489-4.18c-1.831,0-3.466,1.127-4.153,2.774c-0.68-0.499-1.502-0.774-2.347-0.774c-2.206,0-4,1.794-4,4 c0,0.048,0.001,0.095,0.004,0.142c-1.743,0.448-3.004,2.027-3.004,3.858C21.75,72.081,23.544,73.875,25.75,73.875z"/><path fill="#472b29" d="M31.25,72.875c0.159,0,0.841,0,1,0c0.276,0,0.5,0.224,0.5,0.5c0,0.276-0.224,0.5-0.5,0.5 c-0.159,0-0.841,0-1,0c-0.276,0-0.5-0.224-0.5-0.5C30.75,73.099,30.974,72.875,31.25,72.875z"/></g></svg>