<svg xmlns="http://www.w3.org/2000/svg"  viewBox="0 0 100 100" width="100px" height="100px"><path fill="#c7ede6" d="M87.215,56.71C88.35,54.555,89,52.105,89,49.5c0-6.621-4.159-12.257-10.001-14.478 C78.999,35.015,79,35.008,79,35c0-11.598-9.402-21-21-21c-9.784,0-17.981,6.701-20.313,15.757C36.211,29.272,34.638,29,33,29 c-7.692,0-14.023,5.793-14.89,13.252C12.906,43.353,9,47.969,9,53.5C9,59.851,14.149,65,20.5,65c0.177,0,0.352-0.012,0.526-0.022 C21.022,65.153,21,65.324,21,65.5C21,76.822,30.178,86,41.5,86c6.437,0,12.175-2.972,15.934-7.614C59.612,80.611,62.64,82,66,82 c4.65,0,8.674-2.65,10.666-6.518C77.718,75.817,78.837,76,80,76c6.075,0,11-4.925,11-11C91,61.689,89.53,58.727,87.215,56.71z"/><path fill="#fff" d="M15.405,51H5.5C5.224,51,5,50.776,5,50.5S5.224,50,5.5,50h9.905c0.276,0,0.5,0.224,0.5,0.5 S15.682,51,15.405,51z"/><path fill="#fff" d="M18.5,51h-1c-0.276,0-0.5-0.224-0.5-0.5s0.224-0.5,0.5-0.5h1c0.276,0,0.5,0.224,0.5,0.5 S18.777,51,18.5,51z"/><path fill="#fff" d="M23.491,53H14.5c-0.276,0-0.5-0.224-0.5-0.5s0.224-0.5,0.5-0.5h8.991c0.276,0,0.5,0.224,0.5,0.5 S23.767,53,23.491,53z"/><path fill="#fff" d="M12.5,53h-1c-0.276,0-0.5-0.224-0.5-0.5s0.224-0.5,0.5-0.5h1c0.276,0,0.5,0.224,0.5,0.5 S12.777,53,12.5,53z"/><path fill="#fff" d="M9.5,53h-2C7.224,53,7,52.776,7,52.5S7.224,52,7.5,52h2c0.276,0,0.5,0.224,0.5,0.5S9.777,53,9.5,53 z"/><path fill="#fff" d="M15.5,55h-2c-0.276,0-0.5-0.224-0.5-0.5s0.224-0.5,0.5-0.5h2c0.276,0,0.5,0.224,0.5,0.5 S15.776,55,15.5,55z"/><path fill="#fff" d="M18.5,46c-0.177,0-0.823,0-1,0c-0.276,0-0.5,0.224-0.5,0.5c0,0.276,0.224,0.5,0.5,0.5 c0.177,0,0.823,0,1,0c0.276,0,0.5-0.224,0.5-0.5C19,46.224,18.776,46,18.5,46z"/><path fill="#fff" d="M18.5,48c-0.177,0-4.823,0-5,0c-0.276,0-0.5,0.224-0.5,0.5c0,0.276,0.224,0.5,0.5,0.5 c0.177,0,4.823,0,5,0c0.276,0,0.5-0.224,0.5-0.5C19,48.224,18.776,48,18.5,48z"/><path fill="#fff" d="M23.5,50c-0.177,0-2.823,0-3,0c-0.276,0-0.5,0.224-0.5,0.5c0,0.276,0.224,0.5,0.5,0.5 c0.177,0,2.823,0,3,0c0.276,0,0.5-0.224,0.5-0.5C24,50.224,23.776,50,23.5,50z"/><path fill="#fff" d="M71.5,26h-10c-0.276,0-0.5-0.224-0.5-0.5s0.224-0.5,0.5-0.5h10c0.276,0,0.5,0.224,0.5,0.5 S71.776,26,71.5,26z"/><path fill="#fff" d="M75.5,26h-2c-0.276,0-0.5-0.224-0.5-0.5s0.224-0.5,0.5-0.5h2c0.276,0,0.5,0.224,0.5,0.5 S75.776,26,75.5,26z"/><path fill="#fff" d="M80.5,28h-10c-0.276,0-0.5-0.224-0.5-0.5s0.224-0.5,0.5-0.5h10c0.276,0,0.5,0.224,0.5,0.5 S80.777,28,80.5,28z"/><path fill="#fff" d="M68.5,28h-1c-0.276,0-0.5-0.224-0.5-0.5s0.224-0.5,0.5-0.5h1c0.276,0,0.5,0.224,0.5,0.5 S68.776,28,68.5,28z"/><path fill="#fff" d="M65.375,28H63.5c-0.276,0-0.5-0.224-0.5-0.5s0.224-0.5,0.5-0.5h1.875c0.276,0,0.5,0.224,0.5,0.5 S65.651,28,65.375,28z"/><path fill="#fff" d="M74.5,24h-5c-0.276,0-0.5-0.224-0.5-0.5s0.224-0.5,0.5-0.5h5c0.276,0,0.5,0.224,0.5,0.5 S74.777,24,74.5,24z"/><path fill="#fff" d="M71.5,30h-2c-0.276,0-0.5-0.224-0.5-0.5s0.224-0.5,0.5-0.5h2c0.276,0,0.5,0.224,0.5,0.5 S71.776,30,71.5,30z"/><path fill="#fdfcef" d="M26.125,26.5c0,0-3.64,0-6.125,0s-4.5-2.015-4.5-4.5c0-2.333,1.782-4.229,4.055-4.455 C19.533,17.364,19.5,17.187,19.5,17c0-2.485,2.015-4.5,4.5-4.5c1.438,0,2.703,0.686,3.527,1.736C27.667,11.6,29.829,9.5,32.5,9.5 c2.761,0,5,2.239,5,5c0,0.446-0.077,0.87-0.187,1.282c0.642-0.777,1.6-1.282,2.687-1.282c1.781,0,3.234,1.335,3.455,3.055 C43.636,17.533,43.813,17.5,44,17.5c2.485,0,4.5,2.015,4.5,4.5s-2.015,4.5-4.5,4.5s-9.5,0-9.5,0h-5.375V27h-3V26.5z"/><path fill="#472b29" d="M32.5,9c3.033,0,5.5,2.467,5.5,5.5c0,0.016,0,0.031,0,0.047C38.602,14.192,39.29,14,40,14 c1.831,0,3.411,1.261,3.858,3.005C43.905,17.002,43.952,17,44,17c2.757,0,5,2.243,5,5s-2.243,5-5,5H29.125 c-0.276,0-0.5-0.224-0.5-0.5s0.224-0.5,0.5-0.5H44c2.206,0,4-1.794,4-4s-1.794-4-4-4c-0.117,0-0.23,0.017-0.343,0.032l-0.141,0.019 c-0.021,0.003-0.041,0.004-0.062,0.004c-0.246,0-0.462-0.185-0.495-0.437C42.768,16.125,41.496,15,40,15 c-0.885,0-1.723,0.401-2.301,1.1c-0.098,0.118-0.241,0.182-0.386,0.182c-0.078,0-0.156-0.018-0.228-0.056 c-0.209-0.107-0.314-0.346-0.254-0.573C36.946,15.218,37,14.852,37,14.5c0-2.481-2.019-4.5-4.5-4.5 c-2.381,0-4.347,1.872-4.474,4.263c-0.011,0.208-0.15,0.387-0.349,0.45c-0.05,0.016-0.101,0.024-0.152,0.024 c-0.15,0-0.296-0.069-0.392-0.192C26.362,13.563,25.221,13,24,13c-2.206,0-4,1.794-4,4c0,0.117,0.017,0.23,0.032,0.343l0.019,0.141 c0.016,0.134-0.022,0.268-0.106,0.373c-0.084,0.105-0.207,0.172-0.34,0.185C17.549,18.247,16,19.949,16,22c0,2.206,1.794,4,4,4 h6.125c0.276,0,0.5,0.224,0.5,0.5s-0.224,0.5-0.5,0.5H20c-2.757,0-5-2.243-5-5c0-2.397,1.689-4.413,4.003-4.877 C19.001,17.082,19,17.041,19,17c0-2.757,2.243-5,5-5c1.176,0,2.293,0.416,3.183,1.164C27.781,10.76,29.945,9,32.5,9L32.5,9z"/><path fill="#472b29" d="M34,16c1.403,0,2.609,0.999,2.913,2.341C37.28,18.119,37.699,18,38.125,18 c1.202,0,2.198,0.897,2.353,2.068C40.681,20.022,40.874,20,41.063,20c1.529,0,2.811,1.2,2.918,2.732 C43.99,22.87,43.886,22.99,43.749,23c-0.006,0-0.012,0-0.018,0c-0.13,0-0.24-0.101-0.249-0.232 c-0.089-1.271-1.151-2.268-2.419-2.268c-0.229,0-0.47,0.042-0.738,0.127c-0.022,0.007-0.045,0.01-0.067,0.01 c-0.055,0-0.11-0.02-0.156-0.054C40.038,20.537,40,20.455,40,20.375c0-1.034-0.841-1.875-1.875-1.875 c-0.447,0-0.885,0.168-1.231,0.473c-0.047,0.041-0.106,0.063-0.165,0.063c-0.032,0-0.063-0.006-0.093-0.019 c-0.088-0.035-0.148-0.117-0.155-0.212C36.377,17.512,35.288,16.5,34,16.5c-0.208,0-0.425,0.034-0.682,0.107 c-0.023,0.007-0.047,0.01-0.07,0.01c-0.109,0-0.207-0.073-0.239-0.182c-0.038-0.133,0.039-0.271,0.172-0.309 C33.483,16.04,33.744,16,34,16L34,16z"/><path fill="#472b29" d="M20.117,17.5c1.326,0,2.508,0.897,2.874,2.182c0.038,0.133-0.039,0.271-0.172,0.309 C22.795,19.997,22.772,20,22.75,20c-0.109,0-0.209-0.072-0.24-0.182C22.205,18.748,21.221,18,20.117,18 c-0.117,0-0.23,0.014-0.342,0.029c-0.012,0.002-0.023,0.003-0.035,0.003c-0.121,0-0.229-0.092-0.246-0.217 c-0.019-0.137,0.077-0.263,0.214-0.281C19.842,17.516,19.978,17.5,20.117,17.5L20.117,17.5z"/><path fill="#a2b3cb" d="M18.5,60.18V47.82c0-1.83,1.49-3.32,3.32-3.32h1.67V40c0-5.23,1.51-7.49,6.17-7.49 c0.15-0.01,0.31-0.01,0.46-0.01l0.07,0.02c-0.37,1.15-0.64,2.35-0.8,3.6l-1.34,15.15l0.7,0.11c-0.3,0.49-0.57,0.99-0.81,1.53 c-0.64,1.44-1.04,3.16-1.04,5.82c0,0.9,0.07,1.72,0.22,2.45c0.15,0.76,0.36,1.44,0.63,2.03l-0.63,0.29h-4.46h-0.84 C19.99,63.5,18.5,62.01,18.5,60.18z"/><path fill="#a2b3cb" d="M72.34,32.51c4.66,0,6.17,2.26,6.17,7.49v4.5h1.67c1.83,0,3.32,1.49,3.32,3.32v12.36 c0,1.83-1.49,3.32-3.32,3.32h-0.84h-4.46l-0.62-0.3c0.27-0.59,0.48-1.26,0.62-2.02c0.15-0.73,0.22-1.55,0.22-2.45 c0-2.66-0.4-4.38-1.04-5.82c-0.24-0.54-0.51-1.04-0.81-1.53l0.65-0.33l-1.29-14.93c-0.16-1.25-0.43-2.45-0.8-3.6l0.07-0.02 C72.03,32.5,72.19,32.5,72.34,32.51z"/><path fill="#836f61" d="M63.88,47.92c1.67,0,4.99,1.66,4.99,7.48s-4.16,5.82-5.82,5.82c-4.15,0-7.89-4.99-7.89-7.9 C55.16,50.42,59.73,47.92,63.88,47.92z"/><path fill="#836f61" d="M53.92,69.62c-0.25,0.39-0.76,0.49-1.14,0.24l-1.33-0.91c-0.27-0.19-0.63-0.19-0.9,0l-1.33,0.91 c-0.38,0.25-0.89,0.15-1.14-0.24l-0.94-1.45c-0.16-0.23-0.18-0.54-0.07-0.79L51,58.5l3.93,8.88c0.11,0.25,0.09,0.56-0.07,0.79 L53.92,69.62z"/><path fill="#836f61" d="M46.84,53.32c0,2.91-3.74,7.9-7.89,7.9c-1.66,0-5.82,0-5.82-5.82s3.32-7.48,4.99-7.48 C42.27,47.92,46.84,50.42,46.84,53.32z"/><path fill="#fdfcef" d="M59,80.99C56.6,82,52.67,82,51,82s-5.6,0-8-1.01c-1.17-0.49-1.97-1.22-1.97-2.31 c0-10.81-4.16-10.81-5.82-10.81c-1.26,0-5.34-0.47-7.27-4.26c-0.07-0.13-0.13-0.26-0.19-0.4c-0.27-0.59-0.48-1.27-0.63-2.03 c-0.15-0.73-0.22-1.55-0.22-2.45c0-2.66,0.4-4.38,1.04-5.82c0.24-0.54,0.51-1.04,0.81-1.53c0.89-1.47,2.01-2.88,3.13-5.12 c2.5-4.99,1.67-9.97,1.67-12.47c8.31,3.33,14.13,3.33,17.45,3.33s9.14,0,17.45-3.33c0,2.5-0.83,7.48,1.67,12.47 c1.12,2.24,2.24,3.65,3.13,5.12c0.3,0.49,0.57,0.99,0.81,1.53c0.64,1.44,1.04,3.16,1.04,5.82c0,0.9-0.07,1.72-0.22,2.45 c-0.14,0.76-0.35,1.43-0.62,2.02c-0.07,0.16-0.14,0.31-0.22,0.46c-1.94,3.74-6,4.21-7.25,4.21c-1.66,0-5.82,0-5.82,10.81 C60.97,79.77,60.17,80.5,59,80.99z M68.87,55.4c0-5.82-3.32-7.48-4.99-7.48c-4.15,0-8.72,2.5-8.72,5.4c0,2.91,3.74,7.9,7.89,7.9 C64.71,61.22,68.87,61.22,68.87,55.4z M54.86,68.17c0.16-0.23,0.18-0.54,0.07-0.79L51,58.5l-3.93,8.88 c-0.11,0.25-0.09,0.56,0.07,0.79l0.94,1.45c0.25,0.39,0.76,0.49,1.14,0.24l1.33-0.91c0.27-0.19,0.63-0.19,0.9,0l1.33,0.91 c0.38,0.25,0.89,0.15,1.14-0.24L54.86,68.17z M38.95,61.22c4.15,0,7.89-4.99,7.89-7.9c0-2.9-4.57-5.4-8.72-5.4 c-1.67,0-4.99,1.66-4.99,7.48S37.29,61.22,38.95,61.22z"/><path fill="#836f61" d="M36.63,23c3.86-3.18,8.9-4.6,14.37-4.6v0.05v2.37v0.68v2.55v1.45v1.77v2.23v1v3v0.22v2.82v0.58 c-3.32,0-9.14,0-17.45-3.33c0,2.5,0.83,7.48-1.67,12.47c-1.12,2.24-2.24,3.65-3.13,5.12l-0.7-0.11l1.34-15.15 c0.16-1.25,0.43-2.45,0.8-3.6c0.13-0.4,0.27-0.81,0.42-1.2C31.89,28,33.98,25.17,36.63,23z"/><path fill="#836f61" d="M73.25,51.38c-0.89-1.47-2.01-2.88-3.13-5.12c-2.5-4.99-1.67-9.97-1.67-12.47 c-8.31,3.33-14.13,3.33-17.45,3.33v-0.58v-2.82V33.5v-3v-1v-2.23V25.5v-1.45V21.5v-0.68v-2.37V18.4c9.23,0,17.26,4.78,20.39,12.92 c0.15,0.39,0.29,0.8,0.42,1.2c0.37,1.15,0.64,2.35,0.8,3.6l1.29,14.93L73.25,51.38z"/><path fill="#472b29" d="M68.45,33.79h0.005 M68.45,33.79c0,2.5-0.83,7.48,1.67,12.47c1.12,2.24,2.24,3.65,3.13,5.12	c0.3,0.49,0.57,0.99,0.81,1.53c0.64,1.44,1.04,3.16,1.04,5.82c0,0.9-0.07,1.72-0.22,2.45c-0.14,0.76-0.35,1.43-0.62,2.02	c-0.07,0.16-0.14,0.31-0.22,0.46c-1.94,3.74-6,4.21-7.25,4.21c-1.66,0-5.82,0-5.82,10.81c0,1.09-0.8,1.82-1.97,2.31	C56.6,82,52.67,82,51,82s-5.6,0-8-1.01c-1.17-0.49-1.97-1.22-1.97-2.31c0-10.81-4.16-10.81-5.82-10.81c-1.26,0-5.34-0.47-7.27-4.26	c-0.07-0.13-0.13-0.26-0.19-0.4c-0.27-0.59-0.48-1.27-0.63-2.03c-0.15-0.73-0.22-1.55-0.22-2.45c0-2.66,0.4-4.38,1.04-5.82	c0.24-0.54,0.51-1.04,0.81-1.53c0.89-1.47,2.01-2.88,3.13-5.12c2.5-4.99,1.67-9.97,1.67-12.47c8.31,3.33,14.13,3.33,17.45,3.33	S60.14,37.12,68.45,33.79 M68.45,32.39c-0.012,0-0.024,0-0.036,0c0,0,0,0-0.001,0c0,0-0.001,0-0.001,0	c-0.182,0.005-0.354,0.044-0.512,0.112C59.857,35.72,54.313,35.72,51,35.72c-3.317,0-8.87,0-16.929-3.23	c-0.168-0.067-0.345-0.1-0.521-0.1c-0.276,0-0.55,0.081-0.785,0.24c-0.385,0.26-0.615,0.695-0.615,1.16	c0,0.472,0.026,0.994,0.056,1.598c0.127,2.572,0.32,6.458-1.577,10.245c-0.714,1.428-1.419,2.487-2.101,3.512	c-0.343,0.515-0.667,1.002-0.975,1.51c-0.348,0.568-0.641,1.122-0.892,1.687c-0.803,1.806-1.161,3.776-1.161,6.389	c0,1.01,0.084,1.929,0.249,2.732c0.169,0.859,0.415,1.647,0.728,2.331c0.063,0.148,0.141,0.315,0.23,0.481	c2.472,4.855,7.893,4.996,8.503,4.996c1.323,0,4.42,0,4.42,9.41c0,1.102,0.491,2.622,2.829,3.601C45.117,83.4,49.24,83.4,51,83.4	s5.883,0,8.543-1.12c2.336-0.978,2.827-2.498,2.827-3.6c0-9.41,3.097-9.41,4.42-9.41c0.606,0,5.989-0.139,8.493-4.965	c0.09-0.168,0.175-0.349,0.26-0.544c0.314-0.685,0.557-1.475,0.714-2.327c0.16-0.775,0.243-1.694,0.243-2.704	c0-2.612-0.358-4.583-1.161-6.389c-0.251-0.565-0.544-1.118-0.895-1.692c-0.304-0.502-0.628-0.989-0.971-1.504	c-0.682-1.024-1.387-2.084-2.101-3.511c-1.898-3.788-1.705-7.674-1.578-10.246c0.028-0.566,0.052-1.06,0.055-1.509	c0.002-0.029,0.003-0.059,0.003-0.089c0-0.773-0.624-1.4-1.397-1.4h-0.001C68.453,32.39,68.451,32.39,68.45,32.39L68.45,32.39z M68.45,35.19h0.005H68.45L68.45,35.19z"/><path fill="#472b29" d="M60.56,39.16c-0.234,0-0.444-0.166-0.49-0.404c-0.053-0.271,0.124-0.534,0.395-0.586	c1.586-0.309,3.201-0.718,4.797-1.216c0.262-0.083,0.544,0.064,0.626,0.328c0.083,0.264-0.064,0.544-0.328,0.626	c-1.631,0.509-3.281,0.928-4.903,1.244C60.624,39.157,60.591,39.16,60.56,39.16z"/><path fill="#472b29" d="M51,40c-2.916,0-7.796,0-14.558-2.092c-0.264-0.082-0.411-0.361-0.33-0.625	c0.082-0.264,0.36-0.411,0.625-0.33C43.355,39,48.141,39,51,39c1.323,0,3.136,0,5.351-0.218c0.278-0.023,0.52,0.174,0.546,0.449	s-0.174,0.52-0.449,0.546C54.185,40,52.344,40,51,40z"/><path fill="#472b29" d="M53.231,70.497c-0.255,0-0.506-0.075-0.726-0.219l-1.337-0.915c-0.103-0.073-0.233-0.073-0.33-0.004	l-1.335,0.914c-0.307,0.202-0.663,0.271-1.01,0.195c-0.345-0.073-0.641-0.278-0.833-0.578l-0.938-1.448	c-0.248-0.355-0.293-0.844-0.108-1.263l3.931-8.881c0.16-0.362,0.754-0.362,0.914,0l3.93,8.88c0.185,0.42,0.14,0.909-0.117,1.278	l-0.931,1.437c-0.19,0.297-0.486,0.502-0.832,0.576C53.416,70.487,53.323,70.497,53.231,70.497z M50.998,68.308	c0.259,0,0.519,0.078,0.74,0.234l1.324,0.906c0.067,0.043,0.153,0.062,0.238,0.042c0.058-0.012,0.14-0.046,0.199-0.14l0.941-1.452	c0.065-0.095,0.075-0.219,0.032-0.317L51,59.735l-3.473,7.847c-0.042,0.097-0.033,0.221,0.023,0.302l0.949,1.464	c0.061,0.095,0.143,0.129,0.201,0.142c0.085,0.018,0.171,0.001,0.246-0.048l1.322-0.904C50.485,68.384,50.741,68.308,50.998,68.308z"/><path fill="#472b29" d="M28.051,51.97c-0.021,0-0.042-0.001-0.063-0.003c-0.385-0.034-0.67-0.374-0.636-0.759l1.34-15.15	c0.165-1.297,0.443-2.55,0.831-3.753c0.134-0.414,0.279-0.835,0.433-1.237c1.294-3.355,3.448-6.333,6.23-8.61	C39.965,19.346,45.088,17.7,51,17.7c9.809,0,17.872,5.123,21.043,13.369c0.154,0.402,0.299,0.824,0.432,1.235	c0.388,1.205,0.667,2.458,0.829,3.728l1.293,14.958c0.033,0.385-0.252,0.724-0.637,0.757c-0.378,0.033-0.724-0.251-0.757-0.637	l-1.29-14.93c-0.148-1.156-0.408-2.325-0.769-3.446c-0.125-0.386-0.261-0.785-0.407-1.164C67.778,23.878,60.216,19.1,51,19.1	c-5.583,0-10.399,1.535-13.925,4.44c-2.597,2.126-4.605,4.903-5.812,8.032c-0.146,0.378-0.281,0.776-0.408,1.165	c-0.36,1.119-0.62,2.288-0.771,3.473l-1.337,15.123C28.715,51.696,28.409,51.97,28.051,51.97z"/><path fill="#472b29" d="M38.95,61.72c-1.563,0-6.32,0-6.32-6.32c0-6.546,3.963-7.98,5.49-7.98c4.264,0,9.22,2.577,9.22,5.9	C47.34,56.484,43.418,61.72,38.95,61.72z M38.12,48.42c-1.249,0-4.49,1.254-4.49,6.98c0,5.32,3.593,5.32,5.32,5.32	c3.738,0,7.39-4.683,7.39-7.4C46.34,50.893,42.191,48.42,38.12,48.42z"/><path fill="#472b29" d="M63.05,61.72c-4.468,0-8.39-5.236-8.39-8.4c0-3.323,4.956-5.9,9.22-5.9c1.527,0,5.49,1.434,5.49,7.98	C69.37,61.72,64.613,61.72,63.05,61.72z M63.88,48.42c-4.071,0-8.22,2.473-8.22,4.9c0,2.718,3.651,7.4,7.39,7.4	c1.727,0,5.32,0,5.32-5.32C68.37,49.674,65.129,48.42,63.88,48.42z"/><path fill="#472b29" d="M43,81.88c-0.276,0-0.5-0.224-0.5-0.5V76.6c0-0.276,0.224-0.5,0.5-0.5s0.5,0.224,0.5,0.5v4.78	C43.5,81.656,43.276,81.88,43,81.88z"/><path fill="#472b29" d="M47,82.29c-0.276,0-0.5-0.224-0.5-0.5v-4.36c0-0.276,0.224-0.5,0.5-0.5s0.5,0.224,0.5,0.5v4.36	C47.5,82.066,47.276,82.29,47,82.29z"/><path fill="#472b29" d="M51,82.29c-0.276,0-0.5-0.224-0.5-0.5v-3.53c0-0.276,0.224-0.5,0.5-0.5s0.5,0.224,0.5,0.5v3.53	C51.5,82.066,51.276,82.29,51,82.29z"/><path fill="#472b29" d="M55,82.29c-0.276,0-0.5-0.224-0.5-0.5v-4.36c0-0.276,0.224-0.5,0.5-0.5s0.5,0.224,0.5,0.5v4.36	C55.5,82.066,55.276,82.29,55,82.29z"/><path fill="#472b29" d="M59,81.88c-0.276,0-0.5-0.224-0.5-0.5V76.6c0-0.276,0.224-0.5,0.5-0.5s0.5,0.224,0.5,0.5v4.78	C59.5,81.656,59.276,81.88,59,81.88z"/><path fill="#472b29" d="M27.12,64h-5.3C19.713,64,18,62.287,18,60.18V47.82c0-2.106,1.713-3.82,3.82-3.82h1.17v-4	c0-4.796,1.134-7.99,6.67-7.99C29.788,32,29.959,32,30.12,32c0.276,0,0.5,0.224,0.5,0.5c0,0.287-0.229,0.499-0.532,0.5	c-0.13,0-0.267,0-0.396,0.009C25.474,33.01,23.99,34.839,23.99,40v4.5c0,0.276-0.224,0.5-0.5,0.5h-1.67	C20.265,45,19,46.265,19,47.82v12.36c0,1.555,1.265,2.82,2.82,2.82h5.3c0.276,0,0.5,0.224,0.5,0.5S27.396,64,27.12,64z"/><path fill="#472b29" d="M26.25,61h-3.09C21.969,61,21,60.031,21,58.84V56.5c0-0.276,0.224-0.5,0.5-0.5s0.5,0.224,0.5,0.5	v2.34c0,0.629,0.531,1.16,1.16,1.16h3.09c0.276,0,0.5,0.224,0.5,0.5S26.526,61,26.25,61z"/><path fill="#472b29" d="M21.5,55c-0.276,0-0.5-0.224-0.5-0.5v-2c0-0.276,0.224-0.5,0.5-0.5s0.5,0.224,0.5,0.5v2	C22,54.776,21.776,55,21.5,55z"/><path fill="#472b29" d="M21.51,50c-0.276,0-0.5-0.224-0.5-0.5v-0.34c0-1.191,0.969-2.16,2.16-2.16h0.33	c0.276,0,0.5,0.224,0.5,0.5S23.776,48,23.5,48h-0.33c-0.64,0-1.16,0.521-1.16,1.16v0.34C22.01,49.776,21.786,50,21.51,50z"/><path fill="#472b29" d="M80.18,64h-5.3c-0.276,0-0.5-0.224-0.5-0.5s0.224-0.5,0.5-0.5h5.3c1.555,0,2.82-1.265,2.82-2.82	V47.82c0-1.555-1.265-2.82-2.82-2.82h-1.67c-0.276,0-0.5-0.224-0.5-0.5V40c0-5.161-1.484-6.99-5.67-6.99	C72.168,33,72.023,33.003,71.88,33c-0.276,0-0.5-0.224-0.5-0.5s0.224-0.5,0.5-0.5c0.161,0,0.332,0,0.493,0.011c0,0,0.002,0,0.002,0	c5.501,0,6.635,3.194,6.635,7.989v4h1.17c2.106,0,3.82,1.713,3.82,3.82v12.36C84,62.287,82.287,64,80.18,64z"/><path fill="#472b29" d="M78.84,61h-3.09c-0.276,0-0.5-0.224-0.5-0.5s0.224-0.5,0.5-0.5h3.09c0.629,0,1.16-0.531,1.16-1.16	V56.5c0-0.276,0.224-0.5,0.5-0.5s0.5,0.224,0.5,0.5v2.34C81,60.031,80.031,61,78.84,61z"/><path fill="#472b29" d="M80.5,55c-0.276,0-0.5-0.224-0.5-0.5v-2c0-0.276,0.224-0.5,0.5-0.5s0.5,0.224,0.5,0.5v2	C81,54.776,80.776,55,80.5,55z"/><path fill="#472b29" d="M80.49,50c-0.276,0-0.5-0.224-0.5-0.5v-0.34c0-0.64-0.521-1.16-1.16-1.16H78.5	c-0.276,0-0.5-0.224-0.5-0.5s0.224-0.5,0.5-0.5h0.33c1.191,0,2.16,0.969,2.16,2.16v0.34C80.99,49.776,80.767,50,80.49,50z"/><path fill="#472b29" d="M51,37.04c-0.276,0-0.5-0.224-0.5-0.5V18.45c0-0.276,0.224-0.5,0.5-0.5s0.5,0.224,0.5,0.5v18.09	C51.5,36.816,51.276,37.04,51,37.04z"/><path fill="#472b29" d="M53.5,22h-5c-0.276,0-0.5-0.224-0.5-0.5s0.224-0.5,0.5-0.5h5c0.276,0,0.5,0.224,0.5,0.5	S53.776,22,53.5,22z"/><path fill="#472b29" d="M53.5,26h-5c-0.276,0-0.5-0.224-0.5-0.5s0.224-0.5,0.5-0.5h5c0.276,0,0.5,0.224,0.5,0.5	S53.776,26,53.5,26z"/><path fill="#472b29" d="M53.5,30h-5c-0.276,0-0.5-0.224-0.5-0.5s0.224-0.5,0.5-0.5h5c0.276,0,0.5,0.224,0.5,0.5	S53.776,30,53.5,30z"/><path fill="#472b29" d="M53.5,34h-5c-0.276,0-0.5-0.224-0.5-0.5s0.224-0.5,0.5-0.5h5c0.276,0,0.5,0.224,0.5,0.5	S53.776,34,53.5,34z"/><g><path fill="#fdfcef" d="M75.5,82.5c0,0-1.567,0-3.5,0s-3.5-1.567-3.5-3.5c0-1.781,1.335-3.234,3.055-3.455 C71.527,75.366,71.5,75.187,71.5,75c0-1.933,1.567-3.5,3.5-3.5c1.032,0,1.95,0.455,2.59,1.165c0.384-1.808,1.987-3.165,3.91-3.165 c2.209,0,4,1.791,4,4c0,0.191-0.03,0.374-0.056,0.558C85.872,73.714,86.408,73.5,87,73.5c1.228,0,2.245,0.887,2.455,2.055 C89.634,75.527,89.813,75.5,90,75.5c1.933,0,3.5,1.567,3.5,3.5s-1.567,3.5-3.5,3.5s-7.5,0-7.5,0V83h-7V82.5z"/><path fill="#472b29" d="M73.75,78c0.138,0,0.25-0.112,0.25-0.25c0-1.223-0.995-2.218-2.218-2.218 c-0.034,0.009-0.737-0.001-1.244,0.136c-0.133,0.036-0.212,0.173-0.176,0.306c0.036,0.134,0.173,0.213,0.306,0.176 c0.444-0.12,1.1-0.12,1.113-0.118c0.948,0,1.719,0.771,1.719,1.718C73.5,77.888,73.612,78,73.75,78z"/><circle cx="80.5" cy="82.5" r=".5" fill="#472b29"/><path fill="#472b29" d="M72,83h3.5c0.276,0,0.5-0.224,0.5-0.5S75.776,82,75.5,82H72c-1.654,0-3-1.346-3-3 c0-1.496,1.125-2.768,2.618-2.959c0.134-0.018,0.255-0.088,0.336-0.196s0.115-0.244,0.094-0.377C72.025,75.314,72,75.16,72,75 c0-1.654,1.346-3,3-3c0.85,0,1.638,0.355,2.219,1c0.125,0.139,0.321,0.198,0.5,0.148c0.182-0.049,0.321-0.195,0.36-0.379 C78.42,71.165,79.859,70,81.5,70c1.93,0,3.5,1.57,3.5,3.5c0,0.143-0.021,0.28-0.041,0.418c-0.029,0.203,0.063,0.438,0.242,0.54 c0.179,0.102,0.396,0.118,0.556-0.01C86.122,74.155,86.551,74,87,74c0.966,0,1.792,0.691,1.963,1.644 c0.048,0.267,0.296,0.446,0.569,0.405C89.686,76.025,89.84,76,90,76c1.654,0,3,1.346,3,3s-1.346,3-3,3h-7.5 c-0.276,0-0.5,0.224-0.5,0.5s0.224,0.5,0.5,0.5H90c2.206,0,4-1.794,4-4s-1.794-4-4-4c-0.059,0-0.116,0.002-0.174,0.006 C89.412,73.82,88.289,73,87,73c-0.349,0-0.689,0.061-1.011,0.18C85.824,70.847,83.874,69,81.5,69c-1.831,0-3.466,1.127-4.153,2.774 C76.667,71.276,75.845,71,75,71c-2.206,0-4,1.794-4,4c0,0.048,0.001,0.095,0.004,0.142C69.261,75.59,68,77.169,68,79 C68,81.206,69.794,83,72,83z"/><path fill="#472b29" d="M77.5,82c0.159,0,0.841,0,1,0c0.276,0,0.5,0.224,0.5,0.5c0,0.276-0.224,0.5-0.5,0.5 c-0.159,0-0.841,0-1,0c-0.276,0-0.5-0.224-0.5-0.5C77,82.224,77.224,82,77.5,82z"/></g><rect width=".5" height="3.187" x="76.187" y="60.469" fill="#472b29" transform="rotate(-25.565 76.425 62.06)"/><rect width=".5" height="3.187" x="77.187" y="60.469" fill="#472b29" transform="rotate(-25.565 77.425 62.06)"/><rect width=".5" height="3.187" x="78.187" y="60.469" fill="#472b29" transform="rotate(-25.565 78.425 62.06)"/><rect width=".5" height="3.187" x="79.187" y="60.469" fill="#472b29" transform="rotate(-25.565 79.425 62.06)"/><rect width=".5" height="3.187" x="80.187" y="60.469" fill="#472b29" transform="rotate(-25.565 80.425 62.06)"/><path fill="#472b29" d="M81.875,63.25c-0.094,0-0.184-0.053-0.227-0.144l-0.875-1.875c-0.059-0.125-0.004-0.274,0.121-0.333	c0.126-0.058,0.273-0.004,0.333,0.121l0.875,1.875c0.059,0.125,0.004,0.274-0.121,0.333C81.946,63.243,81.911,63.25,81.875,63.25z"/></svg>